IntelOneMono-Light-quadratic.ufo
<glyph name="percent" format="2">
  <advance width="614"/>
  <unicode hex="0025"/>
  <outline>
    <contour>
      <point x="187" y="317" type="qcurve"/>
      <point x="119" y="317"/>
      <point x="47" y="408"/>
      <point x="47" y="493" type="qcurve"/>
      <point x="47" y="577"/>
      <point x="120" y="670"/>
      <point x="188" y="670" type="qcurve"/>
      <point x="257" y="670"/>
      <point x="331" y="579"/>
      <point x="331" y="494" type="qcurve"/>
      <point x="331" y="410"/>
      <point x="256" y="317"/>
    </contour>
    <contour>
      <point x="582" y="654" type="line"/>
      <point x="387" y="376" type="line"/>
      <point x="352" y="376" type="line"/>
      <point x="505" y="660" type="line"/>
      <point x="582" y="660" type="line"/>
    </contour>
    <contour>
      <point x="275" y="493" type="qcurve"/>
      <point x="275" y="558"/>
      <point x="231" y="624"/>
      <point x="187" y="624" type="qcurve"/>
      <point x="144" y="624"/>
      <point x="102" y="559"/>
      <point x="102" y="494" type="qcurve"/>
      <point x="102" y="429"/>
      <point x="145" y="365"/>
      <point x="188" y="365" type="qcurve"/>
      <point x="232" y="365"/>
      <point x="275" y="428"/>
    </contour>
    <contour>
      <point x="426" y="-15" type="qcurve"/>
      <point x="357" y="-15"/>
      <point x="283" y="77"/>
      <point x="283" y="161" type="qcurve"/>
      <point x="283" y="245"/>
      <point x="358" y="338"/>
      <point x="427" y="338" type="qcurve"/>
      <point x="495" y="338"/>
      <point x="567" y="247"/>
      <point x="567" y="162" type="qcurve"/>
      <point x="567" y="78"/>
      <point x="494" y="-15"/>
    </contour>
    <contour>
      <point x="339" y="162" type="qcurve"/>
      <point x="339" y="97"/>
      <point x="383" y="31"/>
      <point x="427" y="31" type="qcurve"/>
      <point x="469" y="31"/>
      <point x="512" y="96"/>
      <point x="512" y="161" type="qcurve"/>
      <point x="512" y="226"/>
      <point x="469" y="290"/>
      <point x="426" y="290" type="qcurve"/>
      <point x="382" y="290"/>
      <point x="339" y="227"/>
    </contour>
    <contour>
      <point x="32" y="1" type="line"/>
      <point x="227" y="279" type="line"/>
      <point x="262" y="279" type="line"/>
      <point x="109" y="-5" type="line"/>
      <point x="32" y="-5" type="line"/>
    </contour>
  </outline>
</glyph>
<glyph name="parenleft" format="2">
  <advance width="614"/>
  <unicode hex="0028"/>
  <outline>
    <contour>
      <point x="123" y="326" type="qcurve"/>
      <point x="123" y="467"/>
      <point x="303" y="705"/>
      <point x="484" y="803" type="qcurve"/>
      <point x="509" y="760" type="line"/>
      <point x="345" y="667"/>
      <point x="185" y="454"/>
      <point x="185" y="329" type="qcurve"/>
      <point x="185" y="204"/>
      <point x="345" y="-9"/>
      <point x="509" y="-102" type="qcurve"/>
      <point x="484" y="-145" type="line"/>
      <point x="302" y="-47"/>
      <point x="123" y="187"/>
    </contour>
  </outline>
</glyph>
<glyph name="comma" format="2">
  <advance width="614"/>
  <unicode hex="002C"/>
  <outline>
    <contour>
      <point x="235" y="-144" type="qcurve"/>
      <point x="172" y="-144" type="line"/>
      <point x="172" y="-142" type="line"/>
      <point x="232" y="-52"/>
      <point x="264" y="32"/>
      <point x="272" y="120" type="qcurve"/>
      <point x="372" y="120" type="line"/>
      <point x="362" y="21"/>
      <point x="317" y="-67"/>
    </contour>
  </outline>
</glyph>
<glyph name="hyphen" format="2">
  <advance width="614"/>
  <unicode hex="002D"/>
  <outline>
    <contour>
      <point x="120" y="254" type="line"/>
      <point x="120" y="309" type="line"/>
      <point x="494" y="309" type="line"/>
      <point x="494" y="254" type="line"/>
    </contour>
  </outline>
</glyph>
<glyph name="period" format="2">
  <advance width="614"/>
  <unicode hex="002E"/>
  <outline>
    <contour>
      <point x="378" y="54" type="qcurve"/>
      <point x="378" y="21"/>
      <point x="340" y="-15"/>
      <point x="307" y="-15" type="qcurve"/>
      <point x="273" y="-15"/>
      <point x="236" y="20"/>
      <point x="236" y="53" type="qcurve"/>
      <point x="236" y="86"/>
      <point x="274" y="122"/>
      <point x="307" y="122" type="qcurve"/>
      <point x="341" y="122"/>
      <point x="378" y="87"/>
    </contour>
  </outline>
</glyph>
<glyph name="slash" format="2">
  <advance width="614"/>
  <unicode hex="002F"/>
  <outline>
    <contour>
      <point x="507" y="755" type="line"/>
      <point x="572" y="755" type="line"/>
      <point x="109" y="-100" type="line"/>
      <point x="42" y="-100" type="line"/>
    </contour>
  </outline>
</glyph>
<glyph name="zero" format="2">
  <advance width="614"/>
  <unicode hex="0030"/>
  <outline>
    <contour>
      <point x="307" y="670" type="qcurve"/>
      <point x="418" y="670"/>
      <point x="546" y="489"/>
      <point x="546" y="329" type="qcurve"/>
      <point x="546" y="168"/>
      <point x="418" y="-15"/>
      <point x="307" y="-15" type="qcurve"/>
      <point x="195" y="-15"/>
      <point x="68" y="165"/>
      <point x="68" y="325" type="qcurve"/>
      <point x="68" y="485"/>
      <point x="197" y="670"/>
    </contour>
    <contour>
      <point x="307" y="619" type="qcurve"/>
      <point x="223" y="619"/>
      <point x="131" y="467"/>
      <point x="131" y="327" type="qcurve"/>
      <point x="131" y="299"/>
      <point x="134" y="250"/>
      <point x="138" y="230" type="qcurve"/>
      <point x="467" y="468" type="line"/>
      <point x="448" y="542"/>
      <point x="366" y="619"/>
    </contour>
    <contour>
      <point x="307" y="36" type="qcurve"/>
      <point x="391" y="36"/>
      <point x="483" y="188"/>
      <point x="483" y="327" type="qcurve"/>
      <point x="483" y="353"/>
      <point x="480" y="400"/>
      <point x="477" y="421" type="qcurve"/>
      <point x="148" y="183" type="line"/>
      <point x="167" y="111"/>
      <point x="249" y="36"/>
    </contour>
  </outline>
</glyph>
<glyph name="three" format="2">
  <advance width="614"/>
  <unicode hex="0033"/>
  <outline>
    <contour>
      <point x="412" y="604" type="line"/>
      <point x="79" y="604" type="line"/>
      <point x="79" y="655" type="line"/>
      <point x="501" y="655" type="line"/>
      <point x="501" y="618" type="line"/>
      <point x="289" y="388" type="line"/>
      <point x="289" y="385" type="line"/>
      <point x="408" y="385"/>
      <point x="531" y="296"/>
      <point x="531" y="210" type="qcurve"/>
      <point x="531" y="115"/>
      <point x="374" y="9"/>
      <point x="218" y="-2" type="qcurve"/>
      <point x="102" y="-10" type="line"/>
      <point x="97" y="42" type="line"/>
      <point x="216" y="51" type="line"/>
      <point x="345" y="61"/>
      <point x="468" y="136"/>
      <point x="468" y="207" type="qcurve"/>
      <point x="468" y="270"/>
      <point x="378" y="335"/>
      <point x="290" y="335" type="qcurve"/>
      <point x="268" y="335"/>
      <point x="223" y="331"/>
      <point x="204" y="328" type="qcurve"/>
      <point x="194" y="353" type="line"/>
      <point x="412" y="601" type="line"/>
    </contour>
  </outline>
</glyph>
<glyph name="eight" format="2">
  <advance width="614"/>
  <unicode hex="0038"/>
  <outline>
    <contour>
      <point x="531" y="175" type="qcurve"/>
      <point x="531" y="90"/>
      <point x="405" y="-15"/>
      <point x="306" y="-15" type="qcurve"/>
      <point x="207" y="-15"/>
      <point x="83" y="89"/>
      <point x="83" y="173" type="qcurve"/>
      <point x="83" y="231"/>
      <point x="165" y="320"/>
      <point x="234" y="338" type="qcurve"/>
      <point x="234" y="343" type="line"/>
      <point x="174" y="361"/>
      <point x="104" y="441"/>
      <point x="104" y="492" type="qcurve"/>
      <point x="104" y="571"/>
      <point x="218" y="670"/>
      <point x="309" y="670" type="qcurve"/>
      <point x="398" y="670"/>
      <point x="510" y="573"/>
      <point x="510" y="494" type="qcurve"/>
      <point x="510" y="443"/>
      <point x="440" y="361"/>
      <point x="381" y="343" type="qcurve"/>
      <point x="381" y="338" type="line"/>
      <point x="449" y="321"/>
      <point x="531" y="233"/>
    </contour>
    <contour>
      <point x="167" y="494" type="qcurve"/>
      <point x="167" y="440"/>
      <point x="250" y="365"/>
      <point x="308" y="365" type="qcurve"/>
      <point x="365" y="365"/>
      <point x="447" y="441"/>
      <point x="447" y="496" type="qcurve"/>
      <point x="447" y="551"/>
      <point x="369" y="619"/>
      <point x="307" y="619" type="qcurve"/>
      <point x="244" y="619"/>
      <point x="167" y="551"/>
    </contour>
    <contour>
      <point x="146" y="171" type="qcurve"/>
      <point x="146" y="111"/>
      <point x="237" y="36"/>
      <point x="308" y="36" type="qcurve"/>
      <point x="379" y="36"/>
      <point x="468" y="111"/>
      <point x="468" y="173" type="qcurve"/>
      <point x="468" y="233"/>
      <point x="375" y="312"/>
      <point x="307" y="312" type="qcurve"/>
      <point x="239" y="312"/>
      <point x="146" y="232"/>
    </contour>
  </outline>
</glyph>
<glyph name="nine" format="2">
  <advance width="614"/>
  <unicode hex="0039"/>
  <outline>
    <contour>
      <point x="534" y="426" type="qcurve"/>
      <point x="534" y="333"/>
      <point x="458" y="183"/>
      <point x="367" y="98" type="qcurve"/>
      <point x="261" y="0" type="line"/>
      <point x="172" y="0" type="line"/>
      <point x="171" y="2" type="line"/>
      <point x="311" y="125" type="line"/>
      <point x="351" y="161"/>
      <point x="408" y="225"/>
      <point x="427" y="256" type="qcurve"/>
      <point x="394" y="245"/>
      <point x="331" y="234"/>
      <point x="298" y="234" type="qcurve"/>
      <point x="202" y="234"/>
      <point x="82" y="351"/>
      <point x="82" y="444" type="qcurve"/>
      <point x="82" y="543"/>
      <point x="212" y="670"/>
      <point x="315" y="670" type="qcurve"/>
      <point x="409" y="670"/>
      <point x="534" y="537"/>
    </contour>
    <contour>
      <point x="453" y="311" type="qcurve"/>
      <point x="462" y="338"/>
      <point x="471" y="392"/>
      <point x="471" y="422" type="qcurve"/>
      <point x="471" y="510"/>
      <point x="378" y="619"/>
      <point x="305" y="619" type="qcurve"/>
      <point x="234" y="619"/>
      <point x="145" y="519"/>
      <point x="145" y="442" type="qcurve"/>
      <point x="145" y="371"/>
      <point x="234" y="285"/>
      <point x="308" y="285" type="qcurve"/>
      <point x="343" y="285"/>
      <point x="415" y="298"/>
    </contour>
  </outline>
</glyph>
<glyph name="less" format="2">
  <advance width="614"/>
  <unicode hex="003C"/>
  <outline>
    <contour>
      <point x="536" y="146" type="line"/>
      <point x="536" y="91" type="line"/>
      <point x="73" y="294" type="line"/>
      <point x="73" y="349" type="line"/>
      <point x="536" y="552" type="line"/>
      <point x="536" y="497" type="line"/>
      <point x="124" y="322" type="line"/>
    </contour>
  </outline>
</glyph>
<glyph name="equal" format="2">
  <advance width="614"/>
  <unicode hex="003D"/>
  <outline>
    <contour>
      <point x="516" y="392" type="line"/>
      <point x="98" y="392" type="line"/>
      <point x="98" y="443" type="line"/>
      <point x="516" y="443" type="line"/>
    </contour>
    <contour>
      <point x="516" y="209" type="line"/>
      <point x="98" y="209" type="line"/>
      <point x="98" y="261" type="line"/>
      <point x="516" y="261" type="line"/>
    </contour>
  </outline>
</glyph>
<glyph name="greater" format="2">
  <advance width="614"/>
  <unicode hex="003E"/>
  <outline>
    <contour>
      <point x="542" y="349" type="line"/>
      <point x="542" y="294" type="line"/>
      <point x="79" y="91" type="line"/>
      <point x="79" y="146" type="line"/>
      <point x="491" y="322" type="line"/>
      <point x="79" y="497" type="line"/>
      <point x="79" y="552" type="line"/>
    </contour>
  </outline>
</glyph>
<glyph name="question" format="2">
  <advance width="614"/>
  <unicode hex="003F"/>
  <outline>
    <contour>
      <point x="260" y="227" type="qcurve"/>
      <point x="224" y="227" type="line"/>
      <point x="217" y="287"/>
      <point x="213" y="321"/>
      <point x="213" y="328" type="qcurve"/>
      <point x="213" y="343"/>
      <point x="227" y="359"/>
      <point x="257" y="374" type="qcurve"/>
      <point x="364" y="428" type="line"/>
      <point x="421" y="457"/>
      <point x="468" y="514"/>
      <point x="468" y="557" type="qcurve"/>
      <point x="468" y="615"/>
      <point x="398" y="674"/>
      <point x="330" y="674" type="qcurve"/>
      <point x="288" y="674"/>
      <point x="180" y="642"/>
      <point x="91" y="604" type="qcurve"/>
      <point x="68" y="655" type="line"/>
      <point x="161" y="695"/>
      <point x="274" y="725"/>
      <point x="338" y="725" type="qcurve"/>
      <point x="430" y="725"/>
      <point x="531" y="636"/>
      <point x="531" y="556" type="qcurve"/>
      <point x="531" y="496"/>
      <point x="473" y="423"/>
      <point x="389" y="379" type="qcurve"/>
      <point x="298" y="331" type="line"/>
      <point x="277" y="319"/>
      <point x="265" y="284"/>
    </contour>
    <contour>
      <point x="299" y="37" type="qcurve"/>
      <point x="299" y="13"/>
      <point x="266" y="-15"/>
      <point x="237" y="-15" type="qcurve"/>
      <point x="210" y="-15"/>
      <point x="177" y="14"/>
      <point x="177" y="40" type="qcurve"/>
      <point x="177" y="62"/>
      <point x="212" y="92"/>
      <point x="239" y="92" type="qcurve"/>
      <point x="268" y="92"/>
      <point x="299" y="63"/>
    </contour>
  </outline>
</glyph>
<glyph name="B" format="2">
  <advance width="614"/>
  <unicode hex="0042"/>
  <outline>
    <contour>
      <point x="103" y="0" type="line"/>
      <point x="103" y="655" type="line"/>
      <point x="330" y="655" type="line"/>
      <point x="424" y="655"/>
      <point x="523" y="576"/>
      <point x="523" y="502" type="qcurve"/>
      <point x="523" y="437"/>
      <point x="446" y="357"/>
      <point x="365" y="337" type="qcurve"/>
      <point x="365" y="333" type="line"/>
      <point x="459" y="321"/>
      <point x="560" y="232"/>
      <point x="560" y="161" type="qcurve"/>
      <point x="560" y="85"/>
      <point x="450" y="0"/>
      <point x="347" y="0" type="qcurve"/>
    </contour>
    <contour>
      <point x="461" y="496" type="qcurve"/>
      <point x="461" y="550"/>
      <point x="394" y="606"/>
      <point x="328" y="606" type="qcurve"/>
      <point x="162" y="606" type="line"/>
      <point x="162" y="353" type="line"/>
      <point x="272" y="358" type="line"/>
      <point x="360" y="362"/>
      <point x="461" y="437"/>
    </contour>
    <contour>
      <point x="499" y="165" type="qcurve"/>
      <point x="499" y="226"/>
      <point x="394" y="301"/>
      <point x="302" y="304" type="qcurve"/>
      <point x="162" y="308" type="line"/>
      <point x="162" y="49" type="line"/>
      <point x="349" y="49" type="line"/>
      <point x="420" y="49"/>
      <point x="499" y="111"/>
    </contour>
  </outline>
</glyph>
<glyph name="C" format="2">
  <advance width="614"/>
  <unicode hex="0043"/>
  <outline>
    <contour>
      <point x="319" y="-15" type="qcurve"/>
      <point x="194" y="-15"/>
      <point x="58" y="164"/>
      <point x="58" y="326" type="qcurve"/>
      <point x="58" y="479"/>
      <point x="210" y="670"/>
      <point x="330" y="670" type="qcurve"/>
      <point x="385" y="670"/>
      <point x="477" y="631"/>
      <point x="551" y="576" type="qcurve"/>
      <point x="516" y="529" type="line"/>
      <point x="457" y="577"/>
      <point x="371" y="619"/>
      <point x="330" y="619" type="qcurve"/>
      <point x="236" y="619"/>
      <point x="121" y="460"/>
      <point x="121" y="328" type="qcurve"/>
      <point x="121" y="189"/>
      <point x="230" y="36"/>
      <point x="327" y="36" type="qcurve"/>
      <point x="371" y="36"/>
      <point x="464" y="80"/>
      <point x="525" y="128" type="qcurve"/>
      <point x="556" y="88" type="line"/>
      <point x="488" y="33"/>
      <point x="379" y="-15"/>
    </contour>
  </outline>
</glyph>
<glyph name="D" format="2">
  <advance width="614"/>
  <unicode hex="0044"/>
  <outline>
    <contour>
      <point x="100" y="0" type="line"/>
      <point x="100" y="655" type="line"/>
      <point x="200" y="655" type="line"/>
      <point x="369" y="655"/>
      <point x="559" y="487"/>
      <point x="559" y="337" type="qcurve"/>
      <point x="559" y="176"/>
      <point x="350" y="0"/>
      <point x="160" y="0" type="qcurve"/>
    </contour>
    <contour>
      <point x="496" y="335" type="qcurve"/>
      <point x="496" y="463"/>
      <point x="346" y="604"/>
      <point x="213" y="604" type="qcurve"/>
      <point x="161" y="604" type="line"/>
      <point x="161" y="51" type="line"/>
      <point x="182" y="51" type="line"/>
      <point x="334" y="51"/>
      <point x="496" y="198"/>
    </contour>
  </outline>
</glyph>
<glyph name="E" format="2">
  <advance width="614"/>
  <unicode hex="0045"/>
  <outline>
    <contour>
      <point x="103" y="0" type="line"/>
      <point x="103" y="655" type="line"/>
      <point x="533" y="655" type="line"/>
      <point x="533" y="604" type="line"/>
      <point x="164" y="604" type="line"/>
      <point x="164" y="357" type="line"/>
      <point x="469" y="357" type="line"/>
      <point x="469" y="306" type="line"/>
      <point x="164" y="306" type="line"/>
      <point x="164" y="51" type="line"/>
      <point x="542" y="51" type="line"/>
      <point x="542" y="0" type="line"/>
    </contour>
  </outline>
</glyph>
<glyph name="G" format="2">
  <advance width="614"/>
  <unicode hex="0047"/>
  <outline>
    <contour>
      <point x="505" y="655" type="qcurve"/>
      <point x="500" y="603" type="line"/>
      <point x="467" y="609"/>
      <point x="422" y="613"/>
      <point x="393" y="613" type="qcurve"/>
      <point x="268" y="613"/>
      <point x="121" y="461"/>
      <point x="121" y="328" type="qcurve"/>
      <point x="121" y="186"/>
      <point x="251" y="36"/>
      <point x="374" y="36" type="qcurve"/>
      <point x="403" y="36"/>
      <point x="463" y="43"/>
      <point x="488" y="49" type="qcurve"/>
      <point x="488" y="292" type="line"/>
      <point x="312" y="292" type="line"/>
      <point x="312" y="343" type="line"/>
      <point x="548" y="343" type="line"/>
      <point x="548" y="10" type="line"/>
      <point x="500" y="-3"/>
      <point x="414" y="-15"/>
      <point x="371" y="-15" type="qcurve"/>
      <point x="216" y="-15"/>
      <point x="58" y="157"/>
      <point x="58" y="326" type="qcurve"/>
      <point x="58" y="481"/>
      <point x="242" y="664"/>
      <point x="395" y="664" type="qcurve"/>
      <point x="421" y="664"/>
      <point x="470" y="660"/>
    </contour>
  </outline>
</glyph>
<glyph name="K" format="2">
  <advance width="614"/>
  <unicode hex="004B"/>
  <outline>
    <contour>
      <point x="103" y="655" type="line"/>
      <point x="164" y="655" type="line"/>
      <point x="164" y="338" type="line"/>
      <point x="490" y="655" type="line"/>
      <point x="570" y="655" type="line"/>
      <point x="570" y="653" type="line"/>
      <point x="236" y="334" type="line"/>
      <point x="585" y="2" type="line"/>
      <point x="585" y="0" type="line"/>
      <point x="499" y="0" type="line"/>
      <point x="164" y="324" type="line"/>
      <point x="164" y="0" type="line"/>
      <point x="103" y="0" type="line"/>
    </contour>
  </outline>
</glyph>
<glyph name="M" format="2">
  <advance width="614"/>
  <unicode hex="004D"/>
  <outline>
    <contour>
      <point x="443" y="655" type="line"/>
      <point x="522" y="655" type="line"/>
      <point x="547" y="0" type="line"/>
      <point x="488" y="0" type="line"/>
      <point x="470" y="593" type="line"/>
      <point x="318" y="185" type="line"/>
      <point x="297" y="185" type="line"/>
      <point x="144" y="581" type="line"/>
      <point x="126" y="0" type="line"/>
      <point x="67" y="0" type="line"/>
      <point x="92" y="655" type="line"/>
      <point x="171" y="655" type="line"/>
      <point x="309" y="299" type="line"/>
    </contour>
  </outline>
</glyph>
<glyph name="N" format="2">
  <advance width="614"/>
  <unicode hex="004E"/>
  <outline>
    <contour>
      <point x="150" y="616" type="line"/>
      <point x="155" y="0" type="line"/>
      <point x="97" y="0" type="line"/>
      <point x="97" y="655" type="line"/>
      <point x="196" y="655" type="line"/>
      <point x="464" y="55" type="line"/>
      <point x="459" y="655" type="line"/>
      <point x="517" y="655" type="line"/>
      <point x="517" y="0" type="line"/>
      <point x="426" y="0" type="line"/>
    </contour>
  </outline>
</glyph>
<glyph name="R" format="2">
  <advance width="614"/>
  <unicode hex="0052"/>
  <outline>
    <contour>
      <point x="406" y="191" type="qcurve"/>
      <point x="572" y="4" type="line"/>
      <point x="572" y="0" type="line"/>
      <point x="494" y="0" type="line"/>
      <point x="338" y="181" type="line"/>
      <point x="294" y="232"/>
      <point x="231" y="264"/>
      <point x="164" y="271" type="qcurve"/>
      <point x="164" y="0" type="line"/>
      <point x="103" y="0" type="line"/>
      <point x="103" y="655" type="line"/>
      <point x="337" y="655" type="line"/>
      <point x="426" y="655"/>
      <point x="534" y="561"/>
      <point x="534" y="483" type="qcurve"/>
      <point x="534" y="392"/>
      <point x="416" y="303"/>
      <point x="286" y="287" type="qcurve"/>
      <point x="286" y="282" type="line"/>
      <point x="324" y="269"/>
      <point x="368" y="234"/>
    </contour>
    <contour>
      <point x="472" y="478" type="qcurve"/>
      <point x="472" y="538"/>
      <point x="395" y="605"/>
      <point x="325" y="605" type="qcurve"/>
      <point x="164" y="605" type="line"/>
      <point x="164" y="311" type="line"/>
      <point x="220" y="317" type="line"/>
      <point x="355" y="332"/>
      <point x="472" y="404"/>
    </contour>
  </outline>
</glyph>
<glyph name="S" format="2">
  <advance width="614"/>
  <unicode hex="0053"/>
  <outline>
    <contour>
      <point x="310" y="38" type="qcurve"/>
      <point x="388" y="38"/>
      <point x="472" y="108"/>
      <point x="472" y="171" type="qcurve"/>
      <point x="472" y="216"/>
      <point x="414" y="277"/>
      <point x="352" y="296" type="qcurve"/>
      <point x="278" y="319" type="line"/>
      <point x="188" y="347"/>
      <point x="103" y="438"/>
      <point x="103" y="506" type="qcurve"/>
      <point x="103" y="577"/>
      <point x="220" y="668"/>
      <point x="318" y="668" type="qcurve"/>
      <point x="366" y="668"/>
      <point x="453" y="653"/>
      <point x="519" y="634" type="qcurve"/>
      <point x="504" y="580" type="line"/>
      <point x="450" y="599"/>
      <point x="358" y="617"/>
      <point x="318" y="617" type="qcurve"/>
      <point x="245" y="617"/>
      <point x="166" y="561"/>
      <point x="166" y="510" type="qcurve"/>
      <point x="166" y="461"/>
      <point x="224" y="400"/>
      <point x="290" y="378" type="qcurve"/>
      <point x="364" y="354" type="line"/>
      <point x="456" y="324"/>
      <point x="535" y="241"/>
      <point x="535" y="173" type="qcurve"/>
      <point x="535" y="85"/>
      <point x="416" y="-13"/>
      <point x="310" y="-13" type="qcurve"/>
      <point x="255" y="-13"/>
      <point x="141" y="12"/>
      <point x="75" y="38" type="qcurve"/>
      <point x="94" y="92" type="line"/>
      <point x="156" y="67"/>
      <point x="271" y="38"/>
    </contour>
  </outline>
</glyph>
<glyph name="T" format="2">
  <advance width="614"/>
  <unicode hex="0054"/>
  <outline>
    <contour>
      <point x="277" y="604" type="line"/>
      <point x="56" y="604" type="line"/>
      <point x="56" y="655" type="line"/>
      <point x="558" y="655" type="line"/>
      <point x="558" y="604" type="line"/>
      <point x="338" y="604" type="line"/>
      <point x="338" y="0" type="line"/>
      <point x="277" y="0" type="line"/>
    </contour>
  </outline>
</glyph>
<glyph name="U" format="2">
  <advance width="614"/>
  <unicode hex="0055"/>
  <outline>
    <contour>
      <point x="307" y="36" type="qcurve"/>
      <point x="391" y="36"/>
      <point x="472" y="133"/>
      <point x="472" y="234" type="qcurve"/>
      <point x="472" y="655" type="line"/>
      <point x="532" y="655" type="line"/>
      <point x="532" y="234" type="line"/>
      <point x="532" y="111"/>
      <point x="418" y="-15"/>
      <point x="306" y="-15" type="qcurve"/>
      <point x="196" y="-15"/>
      <point x="82" y="112"/>
      <point x="82" y="234" type="qcurve"/>
      <point x="82" y="655" type="line"/>
      <point x="143" y="655" type="line"/>
      <point x="143" y="234" type="line"/>
      <point x="143" y="135"/>
      <point x="225" y="36"/>
    </contour>
  </outline>
</glyph>
<glyph name="W" format="2">
  <advance width="614"/>
  <unicode hex="0057"/>
  <outline>
    <contour>
      <point x="563" y="655" type="line"/>
      <point x="471" y="0" type="line"/>
      <point x="396" y="0" type="line"/>
      <point x="306" y="377" type="line"/>
      <point x="216" y="0" type="line"/>
      <point x="143" y="0" type="line"/>
      <point x="51" y="655" type="line"/>
      <point x="113" y="655" type="line"/>
      <point x="185" y="68" type="line"/>
      <point x="296" y="531" type="line"/>
      <point x="320" y="531" type="line"/>
      <point x="431" y="63" type="line"/>
      <point x="505" y="655" type="line"/>
    </contour>
  </outline>
</glyph>
<glyph name="X" format="2">
  <advance width="614"/>
  <unicode hex="0058"/>
  <outline>
    <contour>
      <point x="125" y="0" type="line"/>
      <point x="57" y="0" type="line"/>
      <point x="271" y="337" type="line"/>
      <point x="71" y="655" type="line"/>
      <point x="145" y="655" type="line"/>
      <point x="306" y="384" type="line"/>
      <point x="467" y="655" type="line"/>
      <point x="538" y="655" type="line"/>
      <point x="339" y="341" type="line"/>
      <point x="557" y="0" type="line"/>
      <point x="481" y="0" type="line"/>
      <point x="303" y="292" type="line"/>
    </contour>
  </outline>
</glyph>
<glyph name="Z" format="2">
  <advance width="614"/>
  <unicode hex="005A"/>
  <outline>
    <contour>
      <point x="542" y="0" type="line"/>
      <point x="73" y="0" type="line"/>
      <point x="73" y="36" type="line"/>
      <point x="443" y="600" type="line"/>
      <point x="443" y="604" type="line"/>
      <point x="92" y="604" type="line"/>
      <point x="92" y="655" type="line"/>
      <point x="524" y="655" type="line"/>
      <point x="524" y="618" type="line"/>
      <point x="153" y="55" type="line"/>
      <point x="153" y="50" type="line"/>
      <point x="542" y="50" type="line"/>
    </contour>
  </outline>
</glyph>
<glyph name="backslash" format="2">
  <advance width="614"/>
  <unicode hex="005C"/>
  <outline>
    <contour>
      <point x="505" y="-100" type="line"/>
      <point x="42" y="755" type="line"/>
      <point x="107" y="755" type="line"/>
      <point x="572" y="-100" type="line"/>
    </contour>
  </outline>
</glyph>
<glyph name="a" format="2">
  <advance width="614"/>
  <unicode hex="0061"/>
  <outline>
    <contour>
      <point x="475" y="319" type="qcurve"/>
      <point x="475" y="102" type="line"/>
      <point x="475" y="71"/>
      <point x="494" y="49"/>
      <point x="522" y="47" type="qcurve"/>
      <point x="567" y="44" type="line"/>
      <point x="563" y="-3" type="line"/>
      <point x="531" y="-2" type="line"/>
      <point x="478" y="-1"/>
      <point x="425" y="34"/>
      <point x="416" y="73" type="qcurve"/>
      <point x="409" y="73" type="line"/>
      <point x="359" y="32"/>
      <point x="266" y="-5"/>
      <point x="216" y="-5" type="qcurve"/>
      <point x="153" y="-5"/>
      <point x="77" y="64"/>
      <point x="77" y="122" type="qcurve"/>
      <point x="77" y="188"/>
      <point x="149" y="250"/>
      <point x="238" y="261" type="qcurve"/>
      <point x="416" y="283" type="line"/>
      <point x="416" y="322" type="line"/>
      <point x="416" y="376"/>
      <point x="358" y="415"/>
      <point x="282" y="415" type="qcurve"/>
      <point x="253" y="415"/>
      <point x="166" y="405"/>
      <point x="123" y="397" type="qcurve"/>
      <point x="116" y="446" type="line"/>
      <point x="159" y="455"/>
      <point x="248" y="465"/>
      <point x="284" y="465" type="qcurve"/>
      <point x="389" y="465"/>
      <point x="475" y="401"/>
    </contour>
    <contour>
      <point x="137" y="126" type="qcurve"/>
      <point x="137" y="86"/>
      <point x="180" y="45"/>
      <point x="223" y="45" type="qcurve"/>
      <point x="269" y="45"/>
      <point x="354" y="83"/>
      <point x="416" y="130" type="qcurve"/>
      <point x="416" y="239" type="line"/>
      <point x="244" y="216" type="line"/>
      <point x="187" y="209"/>
      <point x="137" y="168"/>
    </contour>
  </outline>
</glyph>
<glyph name="b" format="2">
  <advance width="614"/>
  <unicode hex="0062"/>
  <outline>
    <contour>
      <point x="100" y="710" type="line"/>
      <point x="159" y="710" type="line"/>
      <point x="159" y="376" type="line"/>
      <point x="206" y="426"/>
      <point x="288" y="468"/>
      <point x="340" y="468" type="qcurve"/>
      <point x="429" y="468"/>
      <point x="548" y="335"/>
      <point x="548" y="233" type="qcurve"/>
      <point x="548" y="132"/>
      <point x="409" y="-8"/>
      <point x="307" y="-8" type="qcurve"/>
      <point x="265" y="-8"/>
      <point x="189" y="14"/>
      <point x="154" y="36" type="qcurve"/>
      <point x="128" y="-2" type="line"/>
      <point x="100" y="-2" type="line"/>
    </contour>
    <contour>
      <point x="488" y="234" type="qcurve"/>
      <point x="488" y="313"/>
      <point x="397" y="418"/>
      <point x="332" y="418" type="qcurve"/>
      <point x="290" y="418"/>
      <point x="210" y="370"/>
      <point x="159" y="316" type="qcurve"/>
      <point x="159" y="90" type="line"/>
      <point x="194" y="66"/>
      <point x="261" y="42"/>
      <point x="294" y="42" type="qcurve"/>
      <point x="381" y="42"/>
      <point x="488" y="152"/>
    </contour>
  </outline>
</glyph>
<glyph name="d" format="2">
  <advance width="614"/>
  <unicode hex="0064"/>
  <outline>
    <contour>
      <point x="274" y="-8" type="qcurve"/>
      <point x="185" y="-8"/>
      <point x="66" y="125"/>
      <point x="66" y="227" type="qcurve"/>
      <point x="66" y="331"/>
      <point x="197" y="468"/>
      <point x="296" y="468" type="qcurve"/>
      <point x="338" y="468"/>
      <point x="417" y="433"/>
      <point x="455" y="397" type="qcurve"/>
      <point x="455" y="710" type="line"/>
      <point x="514" y="710" type="line"/>
      <point x="514" y="0" type="line"/>
      <point x="465" y="0" type="line"/>
      <point x="457" y="86" type="line"/>
      <point x="409" y="35"/>
      <point x="326" y="-8"/>
    </contour>
    <contour>
      <point x="301" y="418" type="qcurve"/>
      <point x="222" y="418"/>
      <point x="126" y="311"/>
      <point x="126" y="226" type="qcurve"/>
      <point x="126" y="147"/>
      <point x="217" y="42"/>
      <point x="282" y="42" type="qcurve"/>
      <point x="324" y="42"/>
      <point x="404" y="90"/>
      <point x="455" y="144" type="qcurve"/>
      <point x="455" y="339" type="line"/>
      <point x="416" y="378"/>
      <point x="339" y="418"/>
    </contour>
  </outline>
</glyph>
<glyph name="e" format="2">
  <advance width="614"/>
  <unicode hex="0065"/>
  <outline>
    <contour>
      <point x="345" y="46" type="qcurve"/>
      <point x="450" y="44" type="line"/>
      <point x="448" y="-5" type="line"/>
      <point x="331" y="-3" type="line"/>
      <point x="208" y="-1"/>
      <point x="83" y="112"/>
      <point x="83" y="220" type="qcurve"/>
      <point x="83" y="331"/>
      <point x="217" y="475"/>
      <point x="318" y="475" type="qcurve"/>
      <point x="422" y="475"/>
      <point x="533" y="349"/>
      <point x="533" y="231" type="qcurve"/>
      <point x="533" y="225"/>
      <point x="532" y="214"/>
      <point x="531" y="206" type="qcurve"/>
      <point x="143" y="206" type="line"/>
      <point x="148" y="128"/>
      <point x="248" y="48"/>
    </contour>
    <contour>
      <point x="318" y="425" type="qcurve"/>
      <point x="250" y="425"/>
      <point x="154" y="332"/>
      <point x="145" y="255" type="qcurve"/>
      <point x="472" y="255" type="line"/>
      <point x="467" y="339"/>
      <point x="389" y="425"/>
    </contour>
  </outline>
</glyph>
<glyph name="f" format="2">
  <advance width="614"/>
  <unicode hex="0066"/>
  <outline>
    <contour>
      <point x="239" y="410" type="line"/>
      <point x="78" y="410" type="line"/>
      <point x="78" y="460" type="line"/>
      <point x="239" y="460" type="line"/>
      <point x="239" y="537" type="line"/>
      <point x="239" y="624"/>
      <point x="322" y="705"/>
      <point x="415" y="711" type="qcurve"/>
      <point x="540" y="719" type="line"/>
      <point x="544" y="667" type="line"/>
      <point x="422" y="659" type="line"/>
      <point x="354" y="655"/>
      <point x="298" y="600"/>
      <point x="298" y="534" type="qcurve"/>
      <point x="298" y="460" type="line"/>
      <point x="505" y="460" type="line"/>
      <point x="505" y="410" type="line"/>
      <point x="298" y="410" type="line"/>
      <point x="298" y="0" type="line"/>
      <point x="239" y="0" type="line"/>
    </contour>
  </outline>
</glyph>
<glyph name="g" format="2">
  <advance width="614"/>
  <unicode hex="0067"/>
  <outline>
    <contour>
      <point x="274" y="16" type="qcurve"/>
      <point x="185" y="16"/>
      <point x="66" y="142"/>
      <point x="66" y="239" type="qcurve"/>
      <point x="66" y="335"/>
      <point x="206" y="468"/>
      <point x="307" y="468" type="qcurve"/>
      <point x="348" y="468"/>
      <point x="424" y="446"/>
      <point x="458" y="425" type="qcurve"/>
      <point x="486" y="462" type="line"/>
      <point x="514" y="462" type="line"/>
      <point x="514" y="-19" type="line"/>
      <point x="514" y="-125"/>
      <point x="419" y="-225"/>
      <point x="315" y="-230" type="qcurve"/>
      <point x="140" y="-239" type="line"/>
      <point x="137" y="-188" type="line"/>
      <point x="306" y="-179" type="line"/>
      <point x="387" y="-175"/>
      <point x="455" y="-103"/>
      <point x="455" y="-22" type="qcurve"/>
      <point x="455" y="108" type="line"/>
      <point x="408" y="58"/>
      <point x="326" y="16"/>
    </contour>
    <contour>
      <point x="320" y="418" type="qcurve"/>
      <point x="233" y="418"/>
      <point x="126" y="315"/>
      <point x="126" y="238" type="qcurve"/>
      <point x="126" y="164"/>
      <point x="217" y="66"/>
      <point x="282" y="66" type="qcurve"/>
      <point x="324" y="66"/>
      <point x="404" y="114"/>
      <point x="455" y="168" type="qcurve"/>
      <point x="455" y="370" type="line"/>
      <point x="420" y="394"/>
      <point x="353" y="418"/>
    </contour>
  </outline>
</glyph>
<glyph name="k" format="2">
  <advance width="614"/>
  <unicode hex="006B"/>
  <outline>
    <contour>
      <point x="124" y="710" type="line"/>
      <point x="183" y="710" type="line"/>
      <point x="183" y="255" type="line"/>
      <point x="459" y="460" type="line"/>
      <point x="538" y="460" type="line"/>
      <point x="538" y="458" type="line"/>
      <point x="252" y="245" type="line"/>
      <point x="539" y="2" type="line"/>
      <point x="539" y="0" type="line"/>
      <point x="455" y="0" type="line"/>
      <point x="183" y="230" type="line"/>
      <point x="183" y="0" type="line"/>
      <point x="124" y="0" type="line"/>
    </contour>
  </outline>
</glyph>
<glyph name="l" format="2">
  <advance width="614"/>
  <unicode hex="006C"/>
  <outline>
    <contour>
      <point x="254" y="147" type="qcurve"/>
      <point x="254" y="660" type="line"/>
      <point x="61" y="660" type="line"/>
      <point x="61" y="710" type="line"/>
      <point x="313" y="710" type="line"/>
      <point x="313" y="156" type="line"/>
      <point x="313" y="102"/>
      <point x="356" y="54"/>
      <point x="408" y="51" type="qcurve"/>
      <point x="517" y="44" type="line"/>
      <point x="513" y="-7" type="line"/>
      <point x="399" y="0" type="line"/>
      <point x="318" y="5"/>
      <point x="254" y="70"/>
    </contour>
  </outline>
</glyph>
<glyph name="m" format="2">
  <advance width="614"/>
  <unicode hex="006D"/>
  <outline>
    <contour>
      <point x="58" y="460" type="line"/>
      <point x="107" y="460" type="line"/>
      <point x="114" y="351" type="line"/>
      <point x="115" y="351" type="line"/>
      <point x="155" y="407"/>
      <point x="230" y="465"/>
      <point x="263" y="465" type="qcurve"/>
      <point x="300" y="465"/>
      <point x="336" y="424"/>
      <point x="336" y="382" type="qcurve"/>
      <point x="336" y="358" type="line"/>
      <point x="337" y="358" type="line"/>
      <point x="374" y="411"/>
      <point x="447" y="464"/>
      <point x="483" y="464" type="qcurve"/>
      <point x="520" y="464"/>
      <point x="556" y="424"/>
      <point x="556" y="382" type="qcurve"/>
      <point x="556" y="0" type="line"/>
      <point x="498" y="0" type="line"/>
      <point x="498" y="384" type="line"/>
      <point x="498" y="401"/>
      <point x="485" y="415"/>
      <point x="469" y="415" type="qcurve"/>
      <point x="446" y="415"/>
      <point x="387" y="361"/>
      <point x="336" y="297" type="qcurve"/>
      <point x="336" y="0" type="line"/>
      <point x="278" y="0" type="line"/>
      <point x="278" y="385" type="line"/>
      <point x="278" y="401"/>
      <point x="264" y="415"/>
      <point x="249" y="415" type="qcurve"/>
      <point x="226" y="415"/>
      <point x="167" y="361"/>
      <point x="116" y="297" type="qcurve"/>
      <point x="116" y="0" type="line"/>
      <point x="58" y="0" type="line"/>
    </contour>
  </outline>
</glyph>
<glyph name="o" format="2">
  <advance width="614"/>
  <unicode hex="006F"/>
  <outline>
    <contour>
      <point x="543" y="228" type="qcurve"/>
      <point x="543" y="120"/>
      <point x="411" y="-15"/>
      <point x="305" y="-15" type="qcurve"/>
      <point x="201" y="-15"/>
      <point x="71" y="121"/>
      <point x="71" y="232" type="qcurve"/>
      <point x="71" y="339"/>
      <point x="204" y="475"/>
      <point x="309" y="475" type="qcurve"/>
      <point x="412" y="475"/>
      <point x="543" y="337"/>
    </contour>
    <contour>
      <point x="131" y="230" type="qcurve"/>
      <point x="131" y="142"/>
      <point x="228" y="35"/>
      <point x="307" y="35" type="qcurve"/>
      <point x="387" y="35"/>
      <point x="483" y="141"/>
      <point x="483" y="230" type="qcurve"/>
      <point x="483" y="315"/>
      <point x="384" y="425"/>
      <point x="307" y="425" type="qcurve"/>
      <point x="229" y="425"/>
      <point x="131" y="317"/>
    </contour>
  </outline>
</glyph>
<glyph name="r" format="2">
  <advance width="614"/>
  <unicode hex="0072"/>
  <outline>
    <contour>
      <point x="49" y="0" type="line"/>
      <point x="49" y="50" type="line"/>
      <point x="179" y="50" type="line"/>
      <point x="179" y="410" type="line"/>
      <point x="69" y="410" type="line"/>
      <point x="69" y="460" type="line"/>
      <point x="233" y="460" type="line"/>
      <point x="237" y="286" type="line"/>
      <point x="304" y="384"/>
      <point x="385" y="453"/>
      <point x="451" y="457" type="qcurve"/>
      <point x="555" y="463" type="line"/>
      <point x="558" y="405" type="line"/>
      <point x="460" y="398" type="line"/>
      <point x="409" y="394"/>
      <point x="361" y="369"/>
      <point x="331" y="336" type="qcurve"/>
      <point x="316" y="320"/>
      <point x="275" y="269"/>
      <point x="238" y="220" type="qcurve"/>
      <point x="238" y="50" type="line"/>
      <point x="398" y="50" type="line"/>
      <point x="398" y="0" type="line"/>
    </contour>
  </outline>
</glyph>
<glyph name="s" format="2">
  <advance width="614"/>
  <unicode hex="0073"/>
  <outline>
    <contour>
      <point x="514" y="124" type="qcurve"/>
      <point x="514" y="59"/>
      <point x="399" y="-12"/>
      <point x="289" y="-12" type="qcurve"/>
      <point x="244" y="-12"/>
      <point x="151" y="-2"/>
      <point x="102" y="8" type="qcurve"/>
      <point x="114" y="62" type="line"/>
      <point x="159" y="51"/>
      <point x="253" y="39"/>
      <point x="289" y="39" type="qcurve"/>
      <point x="371" y="39"/>
      <point x="454" y="78"/>
      <point x="454" y="118" type="qcurve"/>
      <point x="454" y="149"/>
      <point x="408" y="183"/>
      <point x="351" y="198" type="qcurve"/>
      <point x="273" y="218" type="line"/>
      <point x="185" y="241"/>
      <point x="117" y="295"/>
      <point x="117" y="348" type="qcurve"/>
      <point x="117" y="408"/>
      <point x="227" y="472"/>
      <point x="333" y="472" type="qcurve"/>
      <point x="365" y="472"/>
      <point x="459" y="461"/>
      <point x="499" y="453" type="qcurve"/>
      <point x="488" y="400" type="line"/>
      <point x="448" y="410"/>
      <point x="367" y="421"/>
      <point x="333" y="421" type="qcurve"/>
      <point x="254" y="421"/>
      <point x="177" y="388"/>
      <point x="177" y="354" type="qcurve"/>
      <point x="177" y="324"/>
      <point x="224" y="291"/>
      <point x="281" y="276" type="qcurve"/>
      <point x="359" y="256" type="line"/>
      <point x="447" y="233"/>
      <point x="514" y="179"/>
    </contour>
  </outline>
</glyph>
<glyph name="t" format="2">
  <advance width="614"/>
  <unicode hex="0074"/>
  <outline>
    <contour>
      <point x="229" y="167" type="qcurve"/>
      <point x="229" y="410" type="line"/>
      <point x="68" y="410" type="line"/>
      <point x="68" y="460" type="line"/>
      <point x="229" y="460" type="line"/>
      <point x="229" y="637" type="line"/>
      <point x="288" y="637" type="line"/>
      <point x="288" y="460" type="line"/>
      <point x="503" y="460" type="line"/>
      <point x="503" y="410" type="line"/>
      <point x="288" y="410" type="line"/>
      <point x="288" y="178" type="line"/>
      <point x="288" y="107"/>
      <point x="328" y="54"/>
      <point x="386" y="51" type="qcurve"/>
      <point x="533" y="43" type="line"/>
      <point x="530" y="-8" type="line"/>
      <point x="374" y="0" type="line"/>
      <point x="291" y="5"/>
      <point x="229" y="77"/>
    </contour>
  </outline>
</glyph>
<glyph name="u" format="2">
  <advance width="614"/>
  <unicode hex="0075"/>
  <outline>
    <contour>
      <point x="511" y="460" type="line"/>
      <point x="511" y="0" type="line"/>
      <point x="456" y="0" type="line"/>
      <point x="452" y="114" type="line"/>
      <point x="383" y="46"/>
      <point x="293" y="-5"/>
      <point x="243" y="-5" type="qcurve"/>
      <point x="176" y="-5"/>
      <point x="101" y="70"/>
      <point x="101" y="137" type="qcurve"/>
      <point x="101" y="460" type="line"/>
      <point x="160" y="460" type="line"/>
      <point x="160" y="147" type="line"/>
      <point x="160" y="96"/>
      <point x="205" y="47"/>
      <point x="253" y="47" type="qcurve"/>
      <point x="293" y="47"/>
      <point x="377" y="99"/>
      <point x="452" y="171" type="qcurve"/>
      <point x="452" y="460" type="line"/>
    </contour>
  </outline>
</glyph>
<glyph name="v" format="2">
  <advance width="614"/>
  <unicode hex="0076"/>
  <outline>
    <contour>
      <point x="275" y="0" type="line"/>
      <point x="65" y="460" type="line"/>
      <point x="133" y="460" type="line"/>
      <point x="309" y="59" type="line"/>
      <point x="486" y="460" type="line"/>
      <point x="549" y="460" type="line"/>
      <point x="340" y="0" type="line"/>
    </contour>
  </outline>
</glyph>
<glyph name="y" format="2">
  <advance width="614"/>
  <unicode hex="0079"/>
  <outline>
    <contour>
      <point x="551" y="460" type="line"/>
      <point x="290" y="-138" type="line"/>
      <point x="271" y="-182"/>
      <point x="205" y="-225"/>
      <point x="151" y="-228" type="qcurve"/>
      <point x="53" y="-233" type="line"/>
      <point x="51" y="-182" type="line"/>
      <point x="146" y="-177" type="line"/>
      <point x="185" y="-175"/>
      <point x="223" y="-152"/>
      <point x="236" y="-124" type="qcurve"/>
      <point x="281" y="-27" type="line"/>
      <point x="67" y="460" type="line"/>
      <point x="135" y="460" type="line"/>
      <point x="313" y="43" type="line"/>
      <point x="487" y="460" type="line"/>
    </contour>
  </outline>
</glyph>
<glyph name="braceright" format="2">
  <advance width="614"/>
  <unicode hex="007D"/>
  <outline>
    <contour>
      <point x="409" y="-23" type="qcurve"/>
      <point x="409" y="-58"/>
      <point x="362" y="-97"/>
      <point x="314" y="-104" type="qcurve"/>
      <point x="91" y="-135" type="line"/>
      <point x="84" y="-86" type="line"/>
      <point x="307" y="-55" type="line"/>
      <point x="329" y="-52"/>
      <point x="350" y="-37"/>
      <point x="350" y="-23" type="qcurve"/>
      <point x="350" y="-13"/>
      <point x="335" y="11"/>
      <point x="316" y="34" type="qcurve"/>
      <point x="267" y="91" type="line"/>
      <point x="235" y="127"/>
      <point x="210" y="169"/>
      <point x="210" y="190" type="qcurve"/>
      <point x="210" y="219"/>
      <point x="261" y="260"/>
      <point x="320" y="282" type="qcurve"/>
      <point x="347" y="293"/>
      <point x="420" y="316"/>
      <point x="466" y="329" type="qcurve"/>
      <point x="466" y="333" type="line"/>
      <point x="420" y="346"/>
      <point x="347" y="369"/>
      <point x="320" y="380" type="qcurve"/>
      <point x="261" y="402"/>
      <point x="210" y="443"/>
      <point x="210" y="472" type="qcurve"/>
      <point x="210" y="493"/>
      <point x="235" y="535"/>
      <point x="267" y="571" type="qcurve"/>
      <point x="316" y="628" type="line"/>
      <point x="335" y="651"/>
      <point x="350" y="675"/>
      <point x="350" y="685" type="qcurve"/>
      <point x="350" y="699"/>
      <point x="329" y="714"/>
      <point x="307" y="717" type="qcurve"/>
      <point x="84" y="748" type="line"/>
      <point x="91" y="797" type="line"/>
      <point x="314" y="766" type="line"/>
      <point x="362" y="759"/>
      <point x="409" y="720"/>
      <point x="409" y="685" type="qcurve"/>
      <point x="409" y="666"/>
      <point x="385" y="622"/>
      <point x="358" y="592" type="qcurve"/>
      <point x="309" y="535" type="line"/>
      <point x="287" y="508"/>
      <point x="272" y="484"/>
      <point x="272" y="472" type="qcurve"/>
      <point x="272" y="453"/>
      <point x="329" y="422"/>
      <point x="393" y="402" type="qcurve"/>
      <point x="421" y="393"/>
      <point x="492" y="373"/>
      <point x="535" y="361" type="qcurve"/>
      <point x="535" y="301" type="line"/>
      <point x="492" y="289"/>
      <point x="421" y="269"/>
      <point x="393" y="260" type="qcurve"/>
      <point x="329" y="240"/>
      <point x="272" y="209"/>
      <point x="272" y="190" type="qcurve"/>
      <point x="272" y="178"/>
      <point x="287" y="154"/>
      <point x="309" y="127" type="qcurve"/>
      <point x="358" y="70" type="line"/>
      <point x="385" y="40"/>
      <point x="409" y="-4"/>
    </contour>
  </outline>
</glyph>
<glyph name="asciitilde" format="2">
  <advance width="614"/>
  <unicode hex="007E"/>
  <outline>
    <contour>
      <point x="524" y="439" type="qcurve"/>
      <point x="572" y="419" type="line"/>
      <point x="534" y="317"/>
      <point x="471" y="231"/>
      <point x="429" y="231" type="qcurve"/>
      <point x="408" y="231"/>
      <point x="355" y="260"/>
      <point x="297" y="304" type="qcurve"/>
      <point x="245" y="343"/>
      <point x="198" y="371"/>
      <point x="179" y="371" type="qcurve"/>
      <point x="163" y="371"/>
      <point x="135" y="330"/>
      <point x="90" y="224" type="qcurve"/>
      <point x="42" y="244" type="line"/>
      <point x="80" y="346"/>
      <point x="143" y="432"/>
      <point x="185" y="432" type="qcurve"/>
      <point x="206" y="432"/>
      <point x="259" y="403"/>
      <point x="317" y="359" type="qcurve"/>
      <point x="369" y="320"/>
      <point x="416" y="292"/>
      <point x="435" y="292" type="qcurve"/>
      <point x="451" y="292"/>
      <point x="479" y="333"/>
    </contour>
  </outline>
</glyph>
<glyph name="cent" format="2">
  <advance width="614"/>
  <unicode hex="00A2"/>
  <outline>
    <contour>
      <point x="361" y="-142" type="line"/>
      <point x="304" y="-142" type="line"/>
      <point x="304" y="0" type="line"/>
      <point x="201" y="4"/>
      <point x="77" y="139"/>
      <point x="77" y="250" type="qcurve"/>
      <point x="77" y="347"/>
      <point x="206" y="481"/>
      <point x="304" y="489" type="qcurve"/>
      <point x="304" y="632" type="line"/>
      <point x="361" y="632" type="line"/>
      <point x="361" y="488" type="line"/>
      <point x="398" y="485"/>
      <point x="478" y="452"/>
      <point x="536" y="418" type="qcurve"/>
      <point x="509" y="371" type="line"/>
      <point x="461" y="402"/>
      <point x="388" y="434"/>
      <point x="356" y="438" type="qcurve"/>
      <point x="356" y="53" type="line"/>
      <point x="389" y="58"/>
      <point x="465" y="87"/>
      <point x="513" y="113" type="qcurve"/>
      <point x="537" y="71" type="line"/>
      <point x="486" y="42"/>
      <point x="402" y="9"/>
      <point x="361" y="3" type="qcurve"/>
    </contour>
    <contour>
      <point x="137" y="248" type="qcurve"/>
      <point x="137" y="162"/>
      <point x="236" y="50"/>
      <point x="311" y="50" type="qcurve"/>
      <point x="311" y="440" type="line"/>
      <point x="233" y="436"/>
      <point x="137" y="329"/>
    </contour>
  </outline>
</glyph>
<glyph name="yen" format="2">
  <advance width="614"/>
  <unicode hex="00A5"/>
  <outline>
    <contour>
      <point x="278" y="140" type="line"/>
      <point x="85" y="140" type="line"/>
      <point x="85" y="188" type="line"/>
      <point x="278" y="188" type="line"/>
      <point x="278" y="274" type="line"/>
      <point x="85" y="274" type="line"/>
      <point x="85" y="322" type="line"/>
      <point x="263" y="322" type="line"/>
      <point x="52" y="655" type="line"/>
      <point x="122" y="655" type="line"/>
      <point x="308" y="339" type="line"/>
      <point x="495" y="655" type="line"/>
      <point x="562" y="655" type="line"/>
      <point x="349" y="322" type="line"/>
      <point x="527" y="322" type="line"/>
      <point x="527" y="274" type="line"/>
      <point x="333" y="274" type="line"/>
      <point x="333" y="188" type="line"/>
      <point x="527" y="188" type="line"/>
      <point x="527" y="140" type="line"/>
      <point x="333" y="140" type="line"/>
      <point x="333" y="0" type="line"/>
      <point x="278" y="0" type="line"/>
    </contour>
  </outline>
</glyph>
<glyph name="registered" format="2">
  <advance width="614"/>
  <unicode hex="00AE"/>
  <outline>
    <contour>
      <point x="307" y="208" type="qcurve"/>
      <point x="198" y="208"/>
      <point x="68" y="348"/>
      <point x="68" y="465" type="qcurve"/>
      <point x="68" y="584"/>
      <point x="197" y="725"/>
      <point x="307" y="725" type="qcurve"/>
      <point x="417" y="725"/>
      <point x="546" y="586"/>
      <point x="546" y="467" type="qcurve"/>
      <point x="546" y="350"/>
      <point x="415" y="208"/>
    </contour>
    <contour>
      <point x="108" y="467" type="qcurve"/>
      <point x="108" y="364"/>
      <point x="216" y="243"/>
      <point x="307" y="243" type="qcurve"/>
      <point x="400" y="243"/>
      <point x="507" y="362"/>
      <point x="507" y="465" type="qcurve"/>
      <point x="507" y="569"/>
      <point x="400" y="689"/>
      <point x="307" y="689" type="qcurve"/>
      <point x="215" y="689"/>
      <point x="108" y="570"/>
    </contour>
    <contour>
      <point x="364" y="419" type="qcurve"/>
      <point x="420" y="345" type="line"/>
      <point x="420" y="343" type="line"/>
      <point x="365" y="343" type="line"/>
      <point x="313" y="415" type="line"/>
      <point x="300" y="434"/>
      <point x="279" y="448"/>
      <point x="259" y="450" type="qcurve"/>
      <point x="259" y="343" type="line"/>
      <point x="217" y="343" type="line"/>
      <point x="217" y="604" type="line"/>
      <point x="332" y="604" type="line"/>
      <point x="370" y="604"/>
      <point x="415" y="567"/>
      <point x="415" y="535" type="qcurve"/>
      <point x="415" y="499"/>
      <point x="368" y="464"/>
      <point x="316" y="457" type="qcurve"/>
      <point x="316" y="455" type="line"/>
      <point x="332" y="451"/>
      <point x="351" y="436"/>
    </contour>
    <contour>
      <point x="372" y="530" type="qcurve"/>
      <point x="372" y="549"/>
      <point x="348" y="567"/>
      <point x="323" y="567" type="qcurve"/>
      <point x="259" y="567" type="line"/>
      <point x="259" y="477" type="line"/>
      <point x="282" y="479" type="line"/>
      <point x="331" y="484"/>
      <point x="372" y="507"/>
    </contour>
  </outline>
</glyph>
<glyph name="paragraph" format="2">
  <advance width="614"/>
  <unicode hex="00B6"/>
  <outline>
    <contour>
      <point x="344" y="609" type="line"/>
      <point x="344" y="298" type="line"/>
      <point x="340" y="298" type="line"/>
      <point x="210" y="298"/>
      <point x="86" y="387"/>
      <point x="86" y="482" type="qcurve"/>
      <point x="86" y="568"/>
      <point x="204" y="655"/>
      <point x="321" y="655" type="qcurve"/>
      <point x="509" y="655" type="line"/>
      <point x="509" y="0" type="line"/>
      <point x="451" y="0" type="line"/>
      <point x="451" y="609" type="line"/>
    </contour>
  </outline>
</glyph>
<glyph name="ordmasculine" format="2">
  <advance width="614"/>
  <unicode hex="00BA"/>
  <outline>
    <contour>
      <point x="497" y="508" type="qcurve"/>
      <point x="497" y="427"/>
      <point x="388" y="322"/>
      <point x="307" y="322" type="qcurve"/>
      <point x="226" y="322"/>
      <point x="119" y="427"/>
      <point x="119" y="507" type="qcurve"/>
      <point x="119" y="587"/>
      <point x="228" y="692"/>
      <point x="309" y="692" type="qcurve"/>
      <point x="390" y="692"/>
      <point x="497" y="588"/>
    </contour>
    <contour>
      <point x="169" y="506" type="qcurve"/>
      <point x="169" y="445"/>
      <point x="248" y="366"/>
      <point x="308" y="366" type="qcurve"/>
      <point x="368" y="366"/>
      <point x="447" y="446"/>
      <point x="447" y="508" type="qcurve"/>
      <point x="447" y="568"/>
      <point x="367" y="648"/>
      <point x="307" y="648" type="qcurve"/>
      <point x="248" y="648"/>
      <point x="169" y="568"/>
    </contour>
    <contour>
      <point x="126" y="187" type="line"/>
      <point x="126" y="234" type="line"/>
      <point x="491" y="234" type="line"/>
      <point x="491" y="187" type="line"/>
    </contour>
  </outline>
</glyph>
<glyph name="questiondown" format="2">
  <advance width="614"/>
  <unicode hex="00BF"/>
  <outline>
    <contour>
      <point x="315" y="673" type="qcurve"/>
      <point x="315" y="697"/>
      <point x="348" y="725"/>
      <point x="377" y="725" type="qcurve"/>
      <point x="404" y="725"/>
      <point x="437" y="696"/>
      <point x="437" y="670" type="qcurve"/>
      <point x="437" y="648"/>
      <point x="402" y="618"/>
      <point x="375" y="618" type="qcurve"/>
      <point x="346" y="618"/>
      <point x="315" y="647"/>
    </contour>
    <contour>
      <point x="354" y="483" type="qcurve"/>
      <point x="390" y="483" type="line"/>
      <point x="397" y="423"/>
      <point x="401" y="389"/>
      <point x="401" y="382" type="qcurve"/>
      <point x="401" y="367"/>
      <point x="387" y="351"/>
      <point x="357" y="336" type="qcurve"/>
      <point x="250" y="282" type="line"/>
      <point x="193" y="253"/>
      <point x="146" y="196"/>
      <point x="146" y="153" type="qcurve"/>
      <point x="146" y="95"/>
      <point x="216" y="36"/>
      <point x="284" y="36" type="qcurve"/>
      <point x="326" y="36"/>
      <point x="434" y="68"/>
      <point x="523" y="106" type="qcurve"/>
      <point x="546" y="55" type="line"/>
      <point x="453" y="15"/>
      <point x="340" y="-15"/>
      <point x="276" y="-15" type="qcurve"/>
      <point x="184" y="-15"/>
      <point x="83" y="74"/>
      <point x="83" y="154" type="qcurve"/>
      <point x="83" y="214"/>
      <point x="141" y="287"/>
      <point x="225" y="331" type="qcurve"/>
      <point x="316" y="379" type="line"/>
      <point x="337" y="391"/>
      <point x="349" y="426"/>
    </contour>
  </outline>
</glyph>
<glyph name="Aring" format="2">
  <advance width="614"/>
  <unicode hex="00C5"/>
  <outline>
    <contour>
      <point x="175" y="201" type="line"/>
      <point x="109" y="0" type="line"/>
      <point x="46" y="0" type="line"/>
      <point x="257" y="614" type="line"/>
      <point x="211" y="623"/>
      <point x="159" y="679"/>
      <point x="159" y="721" type="qcurve"/>
      <point x="159" y="772"/>
      <point x="240" y="834"/>
      <point x="307" y="834" type="qcurve"/>
      <point x="374" y="834"/>
      <point x="453" y="774"/>
      <point x="453" y="723" type="qcurve"/>
      <point x="453" y="683"/>
      <point x="403" y="626"/>
      <point x="359" y="615" type="qcurve"/>
      <point x="568" y="0" type="line"/>
      <point x="504" y="0" type="line"/>
      <point x="437" y="201" type="line"/>
    </contour>
    <contour>
      <point x="206" y="720" type="qcurve"/>
      <point x="206" y="687"/>
      <point x="257" y="653"/>
      <point x="306" y="653" type="qcurve"/>
      <point x="356" y="653"/>
      <point x="405" y="688"/>
      <point x="405" y="724" type="qcurve"/>
      <point x="405" y="756"/>
      <point x="355" y="790"/>
      <point x="306" y="790" type="qcurve"/>
      <point x="255" y="790"/>
      <point x="206" y="755"/>
    </contour>
    <contour>
      <point x="305" y="596" type="line"/>
      <point x="192" y="252" type="line"/>
      <point x="420" y="252" type="line"/>
    </contour>
  </outline>
</glyph>
<glyph name="AE" format="2">
  <advance width="614"/>
  <unicode hex="00C6"/>
  <outline>
    <contour>
      <point x="128" y="200" type="line"/>
      <point x="58" y="0" type="line"/>
      <point x="-9" y="0" type="line"/>
      <point x="229" y="655" type="line"/>
      <point x="591" y="655" type="line"/>
      <point x="591" y="604" type="line"/>
      <point x="363" y="604" type="line"/>
      <point x="363" y="357" type="line"/>
      <point x="563" y="357" type="line"/>
      <point x="563" y="306" type="line"/>
      <point x="363" y="306" type="line"/>
      <point x="363" y="51" type="line"/>
      <point x="591" y="51" type="line"/>
      <point x="591" y="0" type="line"/>
      <point x="302" y="0" type="line"/>
      <point x="302" y="200" type="line"/>
    </contour>
    <contour>
      <point x="270" y="604" type="line"/>
      <point x="146" y="251" type="line"/>
      <point x="302" y="251" type="line"/>
      <point x="302" y="604" type="line"/>
    </contour>
  </outline>
</glyph>
<glyph name="Ccedilla" format="2">
  <advance width="614"/>
  <unicode hex="00C7"/>
  <outline>
    <contour>
      <point x="481" y="-155" type="qcurve"/>
      <point x="481" y="-193"/>
      <point x="432" y="-234"/>
      <point x="379" y="-248" type="qcurve"/>
      <point x="350" y="-255"/>
      <point x="275" y="-266"/>
      <point x="228" y="-270" type="qcurve"/>
      <point x="213" y="-221" type="line"/>
      <point x="324" y="-212"/>
      <point x="421" y="-185"/>
      <point x="421" y="-157" type="qcurve"/>
      <point x="421" y="-131"/>
      <point x="354" y="-110"/>
      <point x="276" y="-108" type="qcurve"/>
      <point x="270" y="-98" type="line"/>
      <point x="300" y="-14" type="line"/>
      <point x="184" y="-7"/>
      <point x="58" y="170"/>
      <point x="58" y="326" type="qcurve"/>
      <point x="58" y="479"/>
      <point x="210" y="670"/>
      <point x="330" y="670" type="qcurve"/>
      <point x="385" y="670"/>
      <point x="477" y="631"/>
      <point x="551" y="576" type="qcurve"/>
      <point x="516" y="529" type="line"/>
      <point x="457" y="577"/>
      <point x="371" y="619"/>
      <point x="330" y="619" type="qcurve"/>
      <point x="236" y="619"/>
      <point x="121" y="460"/>
      <point x="121" y="328" type="qcurve"/>
      <point x="121" y="189"/>
      <point x="230" y="36"/>
      <point x="327" y="36" type="qcurve"/>
      <point x="371" y="36"/>
      <point x="464" y="80"/>
      <point x="525" y="128" type="qcurve"/>
      <point x="556" y="88" type="line"/>
      <point x="494" y="38"/>
      <point x="395" y="-10"/>
      <point x="344" y="-14" type="qcurve"/>
      <point x="327" y="-66" type="line"/>
      <point x="410" y="-73"/>
      <point x="481" y="-112"/>
    </contour>
  </outline>
</glyph>
<glyph name="Eth" format="2">
  <advance width="614"/>
  <unicode hex="00D0"/>
  <outline>
    <contour>
      <point x="120" y="308" type="line"/>
      <point x="34" y="308" type="line"/>
      <point x="34" y="352" type="line"/>
      <point x="120" y="352" type="line"/>
      <point x="120" y="655" type="line"/>
      <point x="200" y="655" type="line"/>
      <point x="369" y="655"/>
      <point x="559" y="487"/>
      <point x="559" y="337" type="qcurve"/>
      <point x="559" y="176"/>
      <point x="350" y="0"/>
      <point x="160" y="0" type="qcurve"/>
      <point x="120" y="0" type="line"/>
    </contour>
    <contour>
      <point x="321" y="352" type="line"/>
      <point x="321" y="308" type="line"/>
      <point x="181" y="308" type="line"/>
      <point x="181" y="51" type="line"/>
      <point x="333" y="51"/>
      <point x="496" y="198"/>
      <point x="496" y="335" type="qcurve"/>
      <point x="496" y="469"/>
      <point x="338" y="604"/>
      <point x="181" y="604" type="qcurve"/>
      <point x="181" y="352" type="line"/>
    </contour>
  </outline>
</glyph>
<glyph name="Oslash" format="2">
  <advance width="614"/>
  <unicode hex="00D8"/>
  <outline>
    <contour>
      <point x="556" y="329" type="qcurve"/>
      <point x="556" y="168"/>
      <point x="423" y="-15"/>
      <point x="307" y="-15" type="qcurve"/>
      <point x="263" y="-15"/>
      <point x="188" y="13"/>
      <point x="158" y="41" type="qcurve"/>
      <point x="95" y="-71" type="line"/>
      <point x="30" y="-71" type="line"/>
      <point x="127" y="74" type="line"/>
      <point x="93" y="120"/>
      <point x="58" y="247"/>
      <point x="58" y="325" type="qcurve"/>
      <point x="58" y="485"/>
      <point x="192" y="670"/>
      <point x="307" y="670" type="qcurve"/>
      <point x="351" y="670"/>
      <point x="426" y="642"/>
      <point x="456" y="614" type="qcurve"/>
      <point x="519" y="726" type="line"/>
      <point x="584" y="726" type="line"/>
      <point x="487" y="581" type="line"/>
      <point x="521" y="536"/>
      <point x="556" y="408"/>
    </contour>
    <contour>
      <point x="307" y="619" type="qcurve"/>
      <point x="218" y="619"/>
      <point x="121" y="467"/>
      <point x="121" y="327" type="qcurve"/>
      <point x="121" y="263"/>
      <point x="141" y="161"/>
      <point x="161" y="125" type="qcurve"/>
      <point x="427" y="568" type="line"/>
      <point x="404" y="593"/>
      <point x="343" y="619"/>
    </contour>
    <contour>
      <point x="307" y="36" type="qcurve"/>
      <point x="396" y="36"/>
      <point x="493" y="188"/>
      <point x="493" y="327" type="qcurve"/>
      <point x="493" y="391"/>
      <point x="473" y="493"/>
      <point x="453" y="531" type="qcurve"/>
      <point x="187" y="87" type="line"/>
      <point x="210" y="62"/>
      <point x="270" y="36"/>
    </contour>
  </outline>
</glyph>
<glyph name="Thorn" format="2">
  <advance width="614"/>
  <unicode hex="00DE"/>
  <outline>
    <contour>
      <point x="103" y="0" type="line"/>
      <point x="103" y="655" type="line"/>
      <point x="164" y="655" type="line"/>
      <point x="164" y="497" type="line"/>
      <point x="360" y="497" type="line"/>
      <point x="457" y="497"/>
      <point x="566" y="408"/>
      <point x="566" y="330" type="qcurve"/>
      <point x="566" y="250"/>
      <point x="447" y="158"/>
      <point x="344" y="158" type="qcurve"/>
      <point x="164" y="158" type="line"/>
      <point x="164" y="0" type="line"/>
    </contour>
    <contour>
      <point x="504" y="328" type="qcurve"/>
      <point x="504" y="385"/>
      <point x="427" y="446"/>
      <point x="356" y="446" type="qcurve"/>
      <point x="164" y="446" type="line"/>
      <point x="164" y="208" type="line"/>
      <point x="348" y="208" type="line"/>
      <point x="421" y="208"/>
      <point x="504" y="272"/>
    </contour>
  </outline>
</glyph>
<glyph name="germandbls" format="2">
  <advance width="614"/>
  <unicode hex="00DF"/>
  <outline>
    <contour>
      <point x="501" y="127" type="qcurve"/>
      <point x="501" y="177"/>
      <point x="414" y="274"/>
      <point x="308" y="351" type="qcurve"/>
      <point x="308" y="374" type="line"/>
      <point x="388" y="445"/>
      <point x="453" y="531"/>
      <point x="453" y="573" type="qcurve"/>
      <point x="453" y="618"/>
      <point x="384" y="674"/>
      <point x="328" y="674" type="qcurve"/>
      <point x="247" y="674"/>
      <point x="156" y="573"/>
      <point x="156" y="482" type="qcurve"/>
      <point x="156" y="0" type="line"/>
      <point x="97" y="0" type="line"/>
      <point x="97" y="482" type="line"/>
      <point x="97" y="593"/>
      <point x="223" y="725"/>
      <point x="329" y="725" type="qcurve"/>
      <point x="412" y="725"/>
      <point x="516" y="642"/>
      <point x="516" y="578" type="qcurve"/>
      <point x="516" y="522"/>
      <point x="457" y="437"/>
      <point x="378" y="370" type="qcurve"/>
      <point x="483" y="291"/>
      <point x="564" y="192"/>
      <point x="564" y="128" type="qcurve"/>
      <point x="564" y="71"/>
      <point x="488" y="4"/>
      <point x="417" y="0" type="qcurve"/>
      <point x="322" y="-6" type="line"/>
      <point x="318" y="45" type="line"/>
      <point x="411" y="52" type="line"/>
      <point x="456" y="55"/>
      <point x="501" y="93"/>
    </contour>
  </outline>
</glyph>
<glyph name="ae" format="2">
  <advance width="614"/>
  <unicode hex="00E6"/>
  <outline>
    <contour>
      <point x="471" y="45" type="qcurve"/>
      <point x="513" y="44" type="line"/>
      <point x="511" y="-5" type="line"/>
      <point x="460" y="-4" type="line"/>
      <point x="408" y="-3"/>
      <point x="334" y="30"/>
      <point x="311" y="62" type="qcurve"/>
      <point x="294" y="62" type="line"/>
      <point x="252" y="25"/>
      <point x="188" y="-5"/>
      <point x="153" y="-5" type="qcurve"/>
      <point x="97" y="-5"/>
      <point x="38" y="61"/>
      <point x="38" y="122" type="qcurve"/>
      <point x="38" y="181"/>
      <point x="102" y="246"/>
      <point x="175" y="261" type="qcurve"/>
      <point x="272" y="281" type="line"/>
      <point x="272" y="322" type="line"/>
      <point x="272" y="378"/>
      <point x="243" y="420"/>
      <point x="206" y="420" type="qcurve"/>
      <point x="183" y="420"/>
      <point x="122" y="414"/>
      <point x="84" y="407" type="qcurve"/>
      <point x="77" y="456" type="line"/>
      <point x="117" y="463"/>
      <point x="184" y="470"/>
      <point x="211" y="470" type="qcurve"/>
      <point x="260" y="470"/>
      <point x="312" y="431"/>
      <point x="321" y="387" type="qcurve"/>
      <point x="341" y="427"/>
      <point x="401" y="470"/>
      <point x="435" y="470" type="qcurve"/>
      <point x="503" y="470"/>
      <point x="581" y="343"/>
      <point x="581" y="231" type="qcurve"/>
      <point x="581" y="225"/>
      <point x="580" y="214"/>
      <point x="579" y="206" type="qcurve"/>
      <point x="331" y="206" type="line"/>
      <point x="333" y="125"/>
      <point x="402" y="46"/>
    </contour>
    <contour>
      <point x="435" y="420" type="qcurve"/>
      <point x="394" y="420"/>
      <point x="338" y="330"/>
      <point x="332" y="255" type="qcurve"/>
      <point x="520" y="255" type="line"/>
      <point x="517" y="334"/>
      <point x="472" y="420"/>
    </contour>
    <contour>
      <point x="98" y="126" type="qcurve"/>
      <point x="98" y="86"/>
      <point x="129" y="45"/>
      <point x="160" y="45" type="qcurve"/>
      <point x="185" y="45"/>
      <point x="229" y="67"/>
      <point x="287" y="112" type="qcurve"/>
      <point x="279" y="137"/>
      <point x="272" y="195"/>
      <point x="272" y="236" type="qcurve"/>
      <point x="188" y="217" type="line"/>
      <point x="137" y="205"/>
      <point x="98" y="168"/>
    </contour>
  </outline>
</glyph>
<glyph name="ccedilla" format="2">
  <advance width="614"/>
  <unicode hex="00E7"/>
  <outline>
    <contour>
      <point x="324" y="425" type="qcurve"/>
      <point x="241" y="425"/>
      <point x="137" y="318"/>
      <point x="137" y="233" type="qcurve"/>
      <point x="137" y="147"/>
      <point x="238" y="35"/>
      <point x="315" y="35" type="qcurve"/>
      <point x="360" y="35"/>
      <point x="453" y="65"/>
      <point x="513" y="98" type="qcurve"/>
      <point x="537" y="56" type="line"/>
      <point x="475" y="20"/>
      <point x="377" y="-13"/>
      <point x="327" y="-15" type="qcurve"/>
      <point x="310" y="-66" type="line"/>
      <point x="393" y="-73"/>
      <point x="464" y="-112"/>
      <point x="464" y="-155" type="qcurve"/>
      <point x="464" y="-193"/>
      <point x="415" y="-234"/>
      <point x="362" y="-248" type="qcurve"/>
      <point x="333" y="-255"/>
      <point x="258" y="-266"/>
      <point x="211" y="-270" type="qcurve"/>
      <point x="196" y="-221" type="line"/>
      <point x="307" y="-212"/>
      <point x="404" y="-185"/>
      <point x="404" y="-157" type="qcurve"/>
      <point x="404" y="-131"/>
      <point x="337" y="-110"/>
      <point x="259" y="-108" type="qcurve"/>
      <point x="253" y="-98" type="line"/>
      <point x="283" y="-13" type="line"/>
      <point x="189" y="-3"/>
      <point x="77" y="131"/>
      <point x="77" y="235" type="qcurve"/>
      <point x="77" y="338"/>
      <point x="220" y="475"/>
      <point x="326" y="475" type="qcurve"/>
      <point x="380" y="475"/>
      <point x="477" y="440"/>
      <point x="536" y="401" type="qcurve"/>
      <point x="509" y="356" type="line"/>
      <point x="450" y="393"/>
      <point x="368" y="425"/>
    </contour>
  </outline>
</glyph>
<glyph name="eth" format="2">
  <advance width="614"/>
  <unicode hex="00F0"/>
  <outline>
    <contour>
      <point x="366" y="662" type="qcurve"/>
      <point x="456" y="739" type="line"/>
      <point x="487" y="705" type="line"/>
      <point x="404" y="633" type="line"/>
      <point x="478" y="573"/>
      <point x="543" y="426"/>
      <point x="543" y="326" type="qcurve"/>
      <point x="543" y="164"/>
      <point x="409" y="-15"/>
      <point x="290" y="-15" type="qcurve"/>
      <point x="190" y="-15"/>
      <point x="71" y="108"/>
      <point x="71" y="213" type="qcurve"/>
      <point x="71" y="305"/>
      <point x="197" y="426"/>
      <point x="297" y="426" type="qcurve"/>
      <point x="348" y="426"/>
      <point x="438" y="399"/>
      <point x="481" y="371" type="qcurve"/>
      <point x="475" y="446"/>
      <point x="420" y="554"/>
      <point x="363" y="598" type="qcurve"/>
      <point x="244" y="495" type="line"/>
      <point x="212" y="530" type="line"/>
      <point x="324" y="626" type="line"/>
      <point x="299" y="643"/>
      <point x="235" y="667"/>
      <point x="187" y="678" type="qcurve"/>
      <point x="201" y="725" type="line"/>
      <point x="254" y="714"/>
      <point x="334" y="684"/>
    </contour>
    <contour>
      <point x="303" y="376" type="qcurve"/>
      <point x="222" y="376"/>
      <point x="131" y="288"/>
      <point x="131" y="211" type="qcurve"/>
      <point x="131" y="133"/>
      <point x="221" y="35"/>
      <point x="292" y="35" type="qcurve"/>
      <point x="383" y="35"/>
      <point x="483" y="182"/>
      <point x="483" y="320" type="qcurve"/>
      <point x="430" y="350"/>
      <point x="349" y="376"/>
    </contour>
  </outline>
</glyph>
<glyph name="divide" format="2">
  <advance width="614"/>
  <unicode hex="00F7"/>
  <outline>
    <contour>
      <point x="362" y="519" type="qcurve"/>
      <point x="362" y="494"/>
      <point x="333" y="466"/>
      <point x="308" y="466" type="qcurve"/>
      <point x="282" y="466"/>
      <point x="254" y="493"/>
      <point x="254" y="518" type="qcurve"/>
      <point x="254" y="543"/>
      <point x="282" y="570"/>
      <point x="308" y="570" type="qcurve"/>
      <point x="334" y="570"/>
      <point x="362" y="543"/>
    </contour>
    <contour>
      <point x="541" y="301" type="line"/>
      <point x="73" y="301" type="line"/>
      <point x="73" y="352" type="line"/>
      <point x="541" y="352" type="line"/>
    </contour>
    <contour>
      <point x="362" y="135" type="qcurve"/>
      <point x="362" y="110"/>
      <point x="333" y="82"/>
      <point x="308" y="82" type="qcurve"/>
      <point x="282" y="82"/>
      <point x="254" y="109"/>
      <point x="254" y="134" type="qcurve"/>
      <point x="254" y="159"/>
      <point x="282" y="186"/>
      <point x="308" y="186" type="qcurve"/>
      <point x="334" y="186"/>
      <point x="362" y="159"/>
    </contour>
  </outline>
</glyph>
<glyph name="Aogonek" format="2">
  <advance width="614"/>
  <unicode hex="0104"/>
  <outline>
    <contour>
      <point x="175" y="201" type="line"/>
      <point x="109" y="0" type="line"/>
      <point x="46" y="0" type="line"/>
      <point x="271" y="655" type="line"/>
      <point x="345" y="655" type="line"/>
      <point x="568" y="0" type="line"/>
      <point x="553" y="0" type="line"/>
      <point x="520" y="-46"/>
      <point x="488" y="-112"/>
      <point x="488" y="-139" type="qcurve"/>
      <point x="488" y="-163"/>
      <point x="511" y="-186"/>
      <point x="536" y="-187" type="qcurve"/>
      <point x="621" y="-192" type="line"/>
      <point x="617" y="-235" type="line"/>
      <point x="524" y="-230" type="line"/>
      <point x="476" y="-227"/>
      <point x="433" y="-192"/>
      <point x="433" y="-154" type="qcurve"/>
      <point x="433" y="-125"/>
      <point x="471" y="-55"/>
      <point x="514" y="0" type="qcurve"/>
      <point x="504" y="0" type="line"/>
      <point x="437" y="201" type="line"/>
    </contour>
    <contour>
      <point x="305" y="596" type="line"/>
      <point x="192" y="252" type="line"/>
      <point x="420" y="252" type="line"/>
    </contour>
  </outline>
</glyph>
<glyph name="hbar" format="2">
  <advance width="614"/>
  <unicode hex="0127"/>
  <outline>
    <contour>
      <point x="379" y="583" type="line"/>
      <point x="379" y="535" type="line"/>
      <point x="179" y="535" type="line"/>
      <point x="179" y="309" type="line"/>
      <point x="251" y="382"/>
      <point x="328" y="428"/>
      <point x="371" y="428" type="qcurve"/>
      <point x="438" y="428"/>
      <point x="513" y="353"/>
      <point x="513" y="286" type="qcurve"/>
      <point x="513" y="0" type="line"/>
      <point x="454" y="0" type="line"/>
      <point x="454" y="276" type="line"/>
      <point x="454" y="327"/>
      <point x="409" y="376"/>
      <point x="361" y="376" type="qcurve"/>
      <point x="330" y="376"/>
      <point x="266" y="335"/>
      <point x="179" y="252" type="qcurve"/>
      <point x="179" y="0" type="line"/>
      <point x="120" y="0" type="line"/>
      <point x="120" y="535" type="line"/>
      <point x="34" y="535" type="line"/>
      <point x="34" y="583" type="line"/>
      <point x="120" y="583" type="line"/>
      <point x="120" y="710" type="line"/>
      <point x="179" y="710" type="line"/>
      <point x="179" y="583" type="line"/>
    </contour>
  </outline>
</glyph>
<glyph name="Iogonek" format="2">
  <advance width="614"/>
  <unicode hex="012E"/>
  <outline>
    <contour>
      <point x="139" y="0" type="line"/>
      <point x="139" y="26" type="line"/>
      <point x="277" y="48" type="line"/>
      <point x="277" y="607" type="line"/>
      <point x="139" y="629" type="line"/>
      <point x="139" y="655" type="line"/>
      <point x="475" y="655" type="line"/>
      <point x="475" y="629" type="line"/>
      <point x="338" y="607" type="line"/>
      <point x="338" y="48" type="line"/>
      <point x="475" y="26" type="line"/>
      <point x="475" y="0" type="line"/>
      <point x="325" y="0" type="line"/>
      <point x="292" y="-46"/>
      <point x="261" y="-111"/>
      <point x="261" y="-138" type="qcurve"/>
      <point x="261" y="-162"/>
      <point x="284" y="-185"/>
      <point x="309" y="-186" type="qcurve"/>
      <point x="394" y="-191" type="line"/>
      <point x="390" y="-234" type="line"/>
      <point x="297" y="-229" type="line"/>
      <point x="249" y="-226"/>
      <point x="206" y="-191"/>
      <point x="206" y="-153" type="qcurve"/>
      <point x="206" y="-124"/>
      <point x="244" y="-54"/>
      <point x="286" y="0" type="qcurve"/>
    </contour>
  </outline>
</glyph>
<glyph name="OE" format="2">
  <advance width="614"/>
  <unicode hex="0152"/>
  <outline>
    <contour>
      <point x="593" y="0" type="line"/>
      <point x="265" y="0" type="line"/>
      <point x="153" y="0"/>
      <point x="26" y="168"/>
      <point x="26" y="318" type="qcurve"/>
      <point x="26" y="479"/>
      <point x="172" y="655"/>
      <point x="305" y="655" type="qcurve"/>
      <point x="593" y="655" type="line"/>
      <point x="593" y="604" type="line"/>
      <point x="365" y="604" type="line"/>
      <point x="365" y="357" type="line"/>
      <point x="565" y="357" type="line"/>
      <point x="565" y="306" type="line"/>
      <point x="365" y="306" type="line"/>
      <point x="365" y="51" type="line"/>
      <point x="593" y="51" type="line"/>
    </contour>
    <contour>
      <point x="89" y="320" type="qcurve"/>
      <point x="89" y="193"/>
      <point x="175" y="51"/>
      <point x="252" y="51" type="qcurve"/>
      <point x="304" y="51" type="line"/>
      <point x="304" y="604" type="line"/>
      <point x="283" y="604" type="line"/>
      <point x="190" y="604"/>
      <point x="89" y="457"/>
    </contour>
  </outline>
</glyph>
<glyph name="oe" format="2">
  <advance width="614"/>
  <unicode hex="0153"/>
  <outline>
    <contour>
      <point x="316" y="94" type="qcurve"/>
      <point x="297" y="43"/>
      <point x="230" y="-15"/>
      <point x="188" y="-15" type="qcurve"/>
      <point x="119" y="-15"/>
      <point x="32" y="121"/>
      <point x="32" y="232" type="qcurve"/>
      <point x="32" y="339"/>
      <point x="122" y="475"/>
      <point x="192" y="475" type="qcurve"/>
      <point x="234" y="475"/>
      <point x="301" y="413"/>
      <point x="319" y="357" type="qcurve"/>
      <point x="338" y="413"/>
      <point x="403" y="475"/>
      <point x="443" y="475" type="qcurve"/>
      <point x="507" y="475"/>
      <point x="581" y="345"/>
      <point x="581" y="231" type="qcurve"/>
      <point x="581" y="225"/>
      <point x="580" y="214"/>
      <point x="579" y="206" type="qcurve"/>
      <point x="347" y="206" type="line"/>
      <point x="349" y="124"/>
      <point x="409" y="46"/>
      <point x="469" y="45" type="qcurve"/>
      <point x="511" y="44" type="line"/>
      <point x="509" y="-5" type="line"/>
      <point x="458" y="-4" type="line"/>
      <point x="405" y="-3"/>
      <point x="334" y="45"/>
    </contour>
    <contour>
      <point x="92" y="230" type="qcurve"/>
      <point x="92" y="142"/>
      <point x="146" y="35"/>
      <point x="190" y="35" type="qcurve"/>
      <point x="234" y="35"/>
      <point x="288" y="141"/>
      <point x="288" y="230" type="qcurve"/>
      <point x="288" y="316"/>
      <point x="233" y="425"/>
      <point x="190" y="425" type="qcurve"/>
      <point x="146" y="425"/>
      <point x="92" y="317"/>
    </contour>
    <contour>
      <point x="443" y="425" type="qcurve"/>
      <point x="405" y="425"/>
      <point x="353" y="332"/>
      <point x="348" y="255" type="qcurve"/>
      <point x="520" y="255" type="line"/>
      <point x="517" y="336"/>
      <point x="476" y="425"/>
    </contour>
  </outline>
</glyph>
<glyph name="scedilla" format="2">
  <advance width="614"/>
  <unicode hex="015F"/>
  <outline>
    <contour>
      <point x="514" y="124" type="qcurve"/>
      <point x="514" y="64"/>
      <point x="416" y="-6"/>
      <point x="323" y="-11" type="qcurve"/>
      <point x="305" y="-66" type="line"/>
      <point x="388" y="-73"/>
      <point x="459" y="-112"/>
      <point x="459" y="-155" type="qcurve"/>
      <point x="459" y="-193"/>
      <point x="410" y="-234"/>
      <point x="357" y="-248" type="qcurve"/>
      <point x="328" y="-255"/>
      <point x="253" y="-266"/>
      <point x="206" y="-270" type="qcurve"/>
      <point x="191" y="-221" type="line"/>
      <point x="302" y="-212"/>
      <point x="399" y="-185"/>
      <point x="399" y="-157" type="qcurve"/>
      <point x="399" y="-131"/>
      <point x="332" y="-110"/>
      <point x="254" y="-108" type="qcurve"/>
      <point x="248" y="-98" type="line"/>
      <point x="279" y="-12" type="line"/>
      <point x="233" y="-11"/>
      <point x="147" y="-1"/>
      <point x="102" y="8" type="qcurve"/>
      <point x="114" y="62" type="line"/>
      <point x="159" y="51"/>
      <point x="253" y="39"/>
      <point x="289" y="39" type="qcurve"/>
      <point x="371" y="39"/>
      <point x="454" y="78"/>
      <point x="454" y="118" type="qcurve"/>
      <point x="454" y="149"/>
      <point x="408" y="183"/>
      <point x="351" y="198" type="qcurve"/>
      <point x="273" y="218" type="line"/>
      <point x="185" y="241"/>
      <point x="117" y="295"/>
      <point x="117" y="348" type="qcurve"/>
      <point x="117" y="408"/>
      <point x="227" y="472"/>
      <point x="333" y="472" type="qcurve"/>
      <point x="365" y="472"/>
      <point x="459" y="461"/>
      <point x="499" y="453" type="qcurve"/>
      <point x="488" y="400" type="line"/>
      <point x="448" y="410"/>
      <point x="367" y="421"/>
      <point x="333" y="421" type="qcurve"/>
      <point x="254" y="421"/>
      <point x="177" y="388"/>
      <point x="177" y="354" type="qcurve"/>
      <point x="177" y="324"/>
      <point x="224" y="291"/>
      <point x="281" y="276" type="qcurve"/>
      <point x="359" y="256" type="line"/>
      <point x="447" y="233"/>
      <point x="514" y="179"/>
    </contour>
  </outline>
</glyph>
<glyph name="Tcedilla" format="2">
  <advance width="614"/>
  <unicode hex="0162"/>
  <outline>
    <contour>
      <point x="277" y="604" type="line"/>
      <point x="56" y="604" type="line"/>
      <point x="56" y="655" type="line"/>
      <point x="558" y="655" type="line"/>
      <point x="558" y="604" type="line"/>
      <point x="338" y="604" type="line"/>
      <point x="338" y="0" type="line"/>
      <point x="329" y="0" type="line"/>
      <point x="309" y="-61" type="line"/>
      <point x="392" y="-68"/>
      <point x="463" y="-107"/>
      <point x="463" y="-150" type="qcurve"/>
      <point x="463" y="-188"/>
      <point x="414" y="-229"/>
      <point x="361" y="-243" type="qcurve"/>
      <point x="332" y="-250"/>
      <point x="257" y="-261"/>
      <point x="210" y="-265" type="qcurve"/>
      <point x="195" y="-216" type="line"/>
      <point x="306" y="-207"/>
      <point x="403" y="-180"/>
      <point x="403" y="-152" type="qcurve"/>
      <point x="403" y="-126"/>
      <point x="336" y="-105"/>
      <point x="258" y="-103" type="qcurve"/>
      <point x="252" y="-93" type="line"/>
      <point x="285" y="0" type="line"/>
      <point x="277" y="0" type="line"/>
    </contour>
  </outline>
</glyph>
<glyph name="tcedilla" format="2">
  <advance width="614"/>
  <unicode hex="0163"/>
  <outline>
    <contour>
      <point x="229" y="167" type="qcurve"/>
      <point x="229" y="410" type="line"/>
      <point x="68" y="410" type="line"/>
      <point x="68" y="460" type="line"/>
      <point x="229" y="460" type="line"/>
      <point x="229" y="637" type="line"/>
      <point x="288" y="637" type="line"/>
      <point x="288" y="460" type="line"/>
      <point x="503" y="460" type="line"/>
      <point x="503" y="410" type="line"/>
      <point x="288" y="410" type="line"/>
      <point x="288" y="178" type="line"/>
      <point x="288" y="107"/>
      <point x="328" y="54"/>
      <point x="386" y="51" type="qcurve"/>
      <point x="533" y="43" type="line"/>
      <point x="530" y="-8" type="line"/>
      <point x="374" y="0" type="line"/>
      <point x="372" y="0"/>
      <point x="351" y="2"/>
      <point x="345" y="3" type="qcurve"/>
      <point x="324" y="-61" type="line"/>
      <point x="407" y="-68"/>
      <point x="478" y="-107"/>
      <point x="478" y="-150" type="qcurve"/>
      <point x="478" y="-188"/>
      <point x="429" y="-229"/>
      <point x="376" y="-243" type="qcurve"/>
      <point x="347" y="-250"/>
      <point x="272" y="-261"/>
      <point x="225" y="-265" type="qcurve"/>
      <point x="210" y="-216" type="line"/>
      <point x="321" y="-207"/>
      <point x="418" y="-180"/>
      <point x="418" y="-152" type="qcurve"/>
      <point x="418" y="-126"/>
      <point x="351" y="-105"/>
      <point x="273" y="-103" type="qcurve"/>
      <point x="267" y="-93" type="line"/>
      <point x="305" y="12" type="line"/>
      <point x="264" y="26"/>
      <point x="229" y="98"/>
    </contour>
  </outline>
</glyph>
<glyph name="Tbar" format="2">
  <advance width="614"/>
  <unicode hex="0166"/>
  <outline>
    <contour>
      <point x="277" y="309" type="line"/>
      <point x="125" y="309" type="line"/>
      <point x="125" y="353" type="line"/>
      <point x="277" y="353" type="line"/>
      <point x="277" y="604" type="line"/>
      <point x="56" y="604" type="line"/>
      <point x="56" y="655" type="line"/>
      <point x="558" y="655" type="line"/>
      <point x="558" y="604" type="line"/>
      <point x="338" y="604" type="line"/>
      <point x="338" y="353" type="line"/>
      <point x="490" y="353" type="line"/>
      <point x="490" y="309" type="line"/>
      <point x="338" y="309" type="line"/>
      <point x="338" y="0" type="line"/>
      <point x="277" y="0" type="line"/>
    </contour>
  </outline>
</glyph>
<glyph name="tbar" format="2">
  <advance width="614"/>
  <unicode hex="0167"/>
  <outline>
    <contour>
      <point x="229" y="222" type="line"/>
      <point x="103" y="222" type="line"/>
      <point x="103" y="270" type="line"/>
      <point x="229" y="270" type="line"/>
      <point x="229" y="410" type="line"/>
      <point x="68" y="410" type="line"/>
      <point x="68" y="460" type="line"/>
      <point x="229" y="460" type="line"/>
      <point x="229" y="637" type="line"/>
      <point x="288" y="637" type="line"/>
      <point x="288" y="460" type="line"/>
      <point x="503" y="460" type="line"/>
      <point x="503" y="410" type="line"/>
      <point x="288" y="410" type="line"/>
      <point x="288" y="270" type="line"/>
      <point x="461" y="270" type="line"/>
      <point x="461" y="222" type="line"/>
      <point x="288" y="222" type="line"/>
      <point x="288" y="178" type="line"/>
      <point x="288" y="107"/>
      <point x="328" y="54"/>
      <point x="386" y="51" type="qcurve"/>
      <point x="533" y="43" type="line"/>
      <point x="530" y="-8" type="line"/>
      <point x="374" y="0" type="line"/>
      <point x="291" y="5"/>
      <point x="229" y="77"/>
      <point x="229" y="167" type="qcurve"/>
    </contour>
  </outline>
</glyph>
<glyph name="Uogonek" format="2">
  <advance width="614"/>
  <unicode hex="0172"/>
  <outline>
    <contour>
      <point x="225" y="-159" type="qcurve"/>
      <point x="225" y="-132"/>
      <point x="259" y="-66"/>
      <point x="298" y="-15" type="qcurve"/>
      <point x="192" y="-13"/>
      <point x="82" y="114"/>
      <point x="82" y="234" type="qcurve"/>
      <point x="82" y="655" type="line"/>
      <point x="143" y="655" type="line"/>
      <point x="143" y="234" type="line"/>
      <point x="143" y="135"/>
      <point x="225" y="36"/>
      <point x="307" y="36" type="qcurve"/>
      <point x="391" y="36"/>
      <point x="472" y="133"/>
      <point x="472" y="234" type="qcurve"/>
      <point x="472" y="655" type="line"/>
      <point x="532" y="655" type="line"/>
      <point x="532" y="234" type="line"/>
      <point x="532" y="120"/>
      <point x="435" y="-5"/>
      <point x="339" y="-14" type="qcurve"/>
      <point x="309" y="-56"/>
      <point x="280" y="-119"/>
      <point x="280" y="-144" type="qcurve"/>
      <point x="280" y="-168"/>
      <point x="303" y="-191"/>
      <point x="328" y="-192" type="qcurve"/>
      <point x="413" y="-197" type="line"/>
      <point x="409" y="-240" type="line"/>
      <point x="316" y="-235" type="line"/>
      <point x="268" y="-232"/>
      <point x="225" y="-197"/>
    </contour>
  </outline>
</glyph>
<glyph name="uogonek" format="2">
  <advance width="614"/>
  <unicode hex="0173"/>
  <outline>
    <contour>
      <point x="382" y="-154" type="qcurve"/>
      <point x="382" y="-125"/>
      <point x="420" y="-55"/>
      <point x="463" y="0" type="qcurve"/>
      <point x="456" y="0" type="line"/>
      <point x="452" y="114" type="line"/>
      <point x="383" y="46"/>
      <point x="293" y="-5"/>
      <point x="243" y="-5" type="qcurve"/>
      <point x="176" y="-5"/>
      <point x="101" y="70"/>
      <point x="101" y="137" type="qcurve"/>
      <point x="101" y="460" type="line"/>
      <point x="160" y="460" type="line"/>
      <point x="160" y="147" type="line"/>
      <point x="160" y="96"/>
      <point x="205" y="47"/>
      <point x="253" y="47" type="qcurve"/>
      <point x="293" y="47"/>
      <point x="377" y="99"/>
      <point x="452" y="171" type="qcurve"/>
      <point x="452" y="460" type="line"/>
      <point x="511" y="460" type="line"/>
      <point x="511" y="0" type="line"/>
      <point x="502" y="0" type="line"/>
      <point x="469" y="-46"/>
      <point x="437" y="-112"/>
      <point x="437" y="-139" type="qcurve"/>
      <point x="437" y="-163"/>
      <point x="460" y="-186"/>
      <point x="485" y="-187" type="qcurve"/>
      <point x="570" y="-192" type="line"/>
      <point x="566" y="-235" type="line"/>
      <point x="473" y="-230" type="line"/>
      <point x="425" y="-227"/>
      <point x="382" y="-192"/>
    </contour>
  </outline>
</glyph>
<glyph name="ohorn" format="2">
  <advance width="614"/>
  <unicode hex="01A1"/>
  <outline>
    <contour>
      <point x="440" y="421" type="qcurve"/>
      <point x="436" y="421"/>
      <point x="430" y="421"/>
      <point x="426" y="421" type="qcurve"/>
      <point x="424" y="415" type="line"/>
      <point x="483" y="382"/>
      <point x="543" y="285"/>
      <point x="543" y="221" type="qcurve"/>
      <point x="543" y="116"/>
      <point x="411" y="-15"/>
      <point x="305" y="-15" type="qcurve"/>
      <point x="201" y="-15"/>
      <point x="71" y="117"/>
      <point x="71" y="225" type="qcurve"/>
      <point x="71" y="328"/>
      <point x="204" y="460"/>
      <point x="309" y="460" type="qcurve"/>
      <point x="408" y="460" type="line"/>
      <point x="466" y="460"/>
      <point x="505" y="502"/>
      <point x="508" y="572" type="qcurve"/>
      <point x="566" y="572" type="line"/>
      <point x="562" y="493"/>
      <point x="503" y="421"/>
    </contour>
    <contour>
      <point x="131" y="223" type="qcurve"/>
      <point x="131" y="138"/>
      <point x="228" y="35"/>
      <point x="307" y="35" type="qcurve"/>
      <point x="387" y="35"/>
      <point x="483" y="137"/>
      <point x="483" y="223" type="qcurve"/>
      <point x="483" y="305"/>
      <point x="384" y="410"/>
      <point x="307" y="410" type="qcurve"/>
      <point x="229" y="410"/>
      <point x="131" y="306"/>
    </contour>
  </outline>
</glyph>
<glyph name="Oogonek" format="2">
  <advance width="614"/>
  <unicode hex="01EA"/>
  <outline>
    <contour>
      <point x="214" y="-159" type="qcurve"/>
      <point x="214" y="-132"/>
      <point x="249" y="-65"/>
      <point x="288" y="-14" type="qcurve"/>
      <point x="180" y="-6"/>
      <point x="58" y="172"/>
      <point x="58" y="325" type="qcurve"/>
      <point x="58" y="485"/>
      <point x="192" y="670"/>
      <point x="307" y="670" type="qcurve"/>
      <point x="423" y="670"/>
      <point x="556" y="489"/>
      <point x="556" y="329" type="qcurve"/>
      <point x="556" y="176"/>
      <point x="435" y="-5"/>
      <point x="328" y="-14" type="qcurve"/>
      <point x="298" y="-56"/>
      <point x="269" y="-119"/>
      <point x="269" y="-144" type="qcurve"/>
      <point x="269" y="-168"/>
      <point x="292" y="-191"/>
      <point x="317" y="-192" type="qcurve"/>
      <point x="402" y="-197" type="line"/>
      <point x="398" y="-240" type="line"/>
      <point x="305" y="-235" type="line"/>
      <point x="257" y="-232"/>
      <point x="214" y="-197"/>
    </contour>
    <contour>
      <point x="307" y="619" type="qcurve"/>
      <point x="218" y="619"/>
      <point x="121" y="467"/>
      <point x="121" y="327" type="qcurve"/>
      <point x="121" y="188"/>
      <point x="218" y="36"/>
      <point x="307" y="36" type="qcurve"/>
      <point x="396" y="36"/>
      <point x="493" y="188"/>
      <point x="493" y="327" type="qcurve"/>
      <point x="493" y="467"/>
      <point x="396" y="619"/>
    </contour>
  </outline>
</glyph>
<glyph name="oogonek" format="2">
  <advance width="614"/>
  <unicode hex="01EB"/>
  <outline>
    <contour>
      <point x="214" y="-159" type="qcurve"/>
      <point x="214" y="-132"/>
      <point x="248" y="-65"/>
      <point x="287" y="-14" type="qcurve"/>
      <point x="190" y="-8"/>
      <point x="71" y="127"/>
      <point x="71" y="232" type="qcurve"/>
      <point x="71" y="339"/>
      <point x="204" y="475"/>
      <point x="309" y="475" type="qcurve"/>
      <point x="412" y="475"/>
      <point x="543" y="337"/>
      <point x="543" y="228" type="qcurve"/>
      <point x="543" y="126"/>
      <point x="425" y="-6"/>
      <point x="328" y="-14" type="qcurve"/>
      <point x="298" y="-56"/>
      <point x="269" y="-119"/>
      <point x="269" y="-144" type="qcurve"/>
      <point x="269" y="-168"/>
      <point x="292" y="-191"/>
      <point x="317" y="-192" type="qcurve"/>
      <point x="402" y="-197" type="line"/>
      <point x="398" y="-240" type="line"/>
      <point x="305" y="-235" type="line"/>
      <point x="257" y="-232"/>
      <point x="214" y="-197"/>
    </contour>
    <contour>
      <point x="131" y="230" type="qcurve"/>
      <point x="131" y="142"/>
      <point x="228" y="35"/>
      <point x="307" y="35" type="qcurve"/>
      <point x="387" y="35"/>
      <point x="483" y="141"/>
      <point x="483" y="230" type="qcurve"/>
      <point x="483" y="315"/>
      <point x="384" y="425"/>
      <point x="307" y="425" type="qcurve"/>
      <point x="229" y="425"/>
      <point x="131" y="317"/>
    </contour>
  </outline>
</glyph>
<glyph name="ringhalfright" format="2">
  <advance width="614"/>
  <unicode hex="02BE"/>
  <outline>
    <contour>
      <point x="418" y="521" type="qcurve"/>
      <point x="418" y="422"/>
      <point x="282" y="315"/>
      <point x="154" y="315" type="qcurve"/>
      <point x="154" y="377" type="line"/>
      <point x="250" y="377"/>
      <point x="342" y="446"/>
      <point x="342" y="521" type="qcurve"/>
      <point x="342" y="595"/>
      <point x="251" y="663"/>
      <point x="154" y="663" type="qcurve"/>
      <point x="154" y="725" type="line"/>
      <point x="283" y="725"/>
      <point x="418" y="619"/>
    </contour>
  </outline>
</glyph>
<glyph name="gravecmb" format="2">
  <unicode hex="0300"/>
  <outline>
    <contour>
      <point x="-118" y="737" type="line"/>
      <point x="82" y="566" type="line"/>
      <point x="54" y="535" type="line"/>
      <point x="-157" y="694" type="line"/>
    </contour>
  </outline>
</glyph>
<glyph name="circumflexcmb" format="2">
  <unicode hex="0302"/>
  <outline>
    <contour>
      <point x="-153" y="536" type="line"/>
      <point x="-183" y="566" type="line"/>
      <point x="-18" y="741" type="line"/>
      <point x="18" y="741" type="line"/>
      <point x="183" y="566" type="line"/>
      <point x="153" y="536" type="line"/>
      <point x="0" y="682" type="line"/>
    </contour>
  </outline>
</glyph>
<glyph name="macroncmb" format="2">
  <unicode hex="0304"/>
  <outline>
    <contour>
      <point x="164" y="576" type="line"/>
      <point x="-164" y="576" type="line"/>
      <point x="-164" y="626" type="line"/>
      <point x="164" y="626" type="line"/>
    </contour>
  </outline>
</glyph>
<glyph name="dotaccentcmb" format="2">
  <unicode hex="0307"/>
  <outline>
    <contour>
      <point x="54" y="607" type="qcurve"/>
      <point x="54" y="582"/>
      <point x="25" y="556"/>
      <point x="-1" y="556" type="qcurve"/>
      <point x="-27" y="556"/>
      <point x="-54" y="582"/>
      <point x="-54" y="607" type="qcurve"/>
      <point x="-54" y="631"/>
      <point x="-24" y="659"/>
      <point x="0" y="659" type="qcurve"/>
      <point x="26" y="659"/>
      <point x="54" y="632"/>
    </contour>
  </outline>
</glyph>
<glyph name="ringcmb" format="2">
  <unicode hex="030A"/>
  <outline>
    <contour>
      <point x="137" y="655" type="qcurve"/>
      <point x="137" y="601"/>
      <point x="62" y="536"/>
      <point x="-1" y="536" type="qcurve"/>
      <point x="-64" y="536"/>
      <point x="-137" y="599"/>
      <point x="-137" y="653" type="qcurve"/>
      <point x="-137" y="707"/>
      <point x="-62" y="772"/>
      <point x="1" y="772" type="qcurve"/>
      <point x="64" y="772"/>
      <point x="137" y="709"/>
    </contour>
    <contour>
      <point x="-90" y="652" type="qcurve"/>
      <point x="-90" y="617"/>
      <point x="-44" y="580"/>
      <point x="0" y="580" type="qcurve"/>
      <point x="45" y="580"/>
      <point x="89" y="618"/>
      <point x="89" y="656" type="qcurve"/>
      <point x="89" y="691"/>
      <point x="44" y="728"/>
      <point x="0" y="728" type="qcurve"/>
      <point x="-46" y="728"/>
      <point x="-90" y="690"/>
    </contour>
  </outline>
</glyph>
<glyph name="caroncmb" format="2">
  <unicode hex="030C"/>
  <outline>
    <contour>
      <point x="153" y="741" type="line"/>
      <point x="183" y="711" type="line"/>
      <point x="18" y="536" type="line"/>
      <point x="-18" y="536" type="line"/>
      <point x="-183" y="711" type="line"/>
      <point x="-153" y="741" type="line"/>
      <point x="0" y="595" type="line"/>
    </contour>
  </outline>
</glyph>
<glyph name="dieresisbelowcmb" format="2">
  <unicode hex="0324"/>
  <outline>
    <contour>
      <point x="-66" y="-146" type="qcurve"/>
      <point x="-66" y="-169"/>
      <point x="-94" y="-195"/>
      <point x="-119" y="-195" type="qcurve"/>
      <point x="-143" y="-195"/>
      <point x="-170" y="-170"/>
      <point x="-170" y="-146" type="qcurve"/>
      <point x="-170" y="-123"/>
      <point x="-142" y="-96"/>
      <point x="-118" y="-96" type="qcurve"/>
      <point x="-93" y="-96"/>
      <point x="-66" y="-122"/>
    </contour>
    <contour>
      <point x="170" y="-146" type="qcurve"/>
      <point x="170" y="-169"/>
      <point x="142" y="-195"/>
      <point x="117" y="-195" type="qcurve"/>
      <point x="93" y="-195"/>
      <point x="67" y="-170"/>
      <point x="67" y="-146" type="qcurve"/>
      <point x="67" y="-123"/>
      <point x="95" y="-96"/>
      <point x="118" y="-96" type="qcurve"/>
      <point x="143" y="-96"/>
      <point x="170" y="-122"/>
    </contour>
  </outline>
</glyph>
<glyph name="cedillacmb" format="2">
  <unicode hex="0327"/>
  <outline>
    <contour>
      <point x="-55" y="-93" type="line"/>
      <point x="-14" y="21" type="line"/>
      <point x="29" y="21" type="line"/>
      <point x="2" y="-61" type="line"/>
      <point x="85" y="-68"/>
      <point x="156" y="-107"/>
      <point x="156" y="-150" type="qcurve"/>
      <point x="156" y="-188"/>
      <point x="107" y="-229"/>
      <point x="54" y="-243" type="qcurve"/>
      <point x="25" y="-250"/>
      <point x="-50" y="-261"/>
      <point x="-97" y="-265" type="qcurve"/>
      <point x="-112" y="-216" type="line"/>
      <point x="-1" y="-207"/>
      <point x="96" y="-180"/>
      <point x="96" y="-152" type="qcurve"/>
      <point x="96" y="-126"/>
      <point x="29" y="-105"/>
      <point x="-49" y="-103" type="qcurve"/>
    </contour>
  </outline>
</glyph>
<glyph name="ogonekcmb" format="2">
  <unicode hex="0328"/>
  <outline>
    <contour>
      <point x="-101" y="-154" type="qcurve"/>
      <point x="-101" y="-124"/>
      <point x="-59" y="-48"/>
      <point x="-11" y="12" type="qcurve"/>
      <point x="28" y="12" type="line"/>
      <point x="-10" y="-38"/>
      <point x="-46" y="-111"/>
      <point x="-46" y="-139" type="qcurve"/>
      <point x="-46" y="-163"/>
      <point x="-23" y="-186"/>
      <point x="2" y="-187" type="qcurve"/>
      <point x="87" y="-192" type="line"/>
      <point x="83" y="-235" type="line"/>
      <point x="-10" y="-230" type="line"/>
      <point x="-58" y="-227"/>
      <point x="-101" y="-192"/>
    </contour>
  </outline>
</glyph>
<glyph name="circumflexbelowcmb" format="2">
  <unicode hex="032D"/>
  <outline>
    <contour>
      <point x="-153" y="-281" type="line"/>
      <point x="-183" y="-251" type="line"/>
      <point x="-18" y="-76" type="line"/>
      <point x="18" y="-76" type="line"/>
      <point x="183" y="-251" type="line"/>
      <point x="153" y="-281" type="line"/>
      <point x="0" y="-135" type="line"/>
    </contour>
  </outline>
</glyph>
<glyph name="macronbelowcmb" format="2">
  <unicode hex="0331"/>
  <outline>
    <contour>
      <point x="164" y="-166" type="line"/>
      <point x="-164" y="-166" type="line"/>
      <point x="-164" y="-116" type="line"/>
      <point x="164" y="-116" type="line"/>
    </contour>
  </outline>
</glyph>
<glyph name="bahtthai" format="2">
  <advance width="614"/>
  <unicode hex="0E3F"/>
  <outline>
    <contour>
      <point x="343" y="0" type="line"/>
      <point x="343" y="-142" type="line"/>
      <point x="286" y="-142" type="line"/>
      <point x="286" y="0" type="line"/>
      <point x="103" y="0" type="line"/>
      <point x="103" y="655" type="line"/>
      <point x="286" y="655" type="line"/>
      <point x="286" y="797" type="line"/>
      <point x="343" y="797" type="line"/>
      <point x="343" y="655" type="line"/>
      <point x="360" y="655" type="line"/>
      <point x="454" y="655"/>
      <point x="553" y="576"/>
      <point x="553" y="502" type="qcurve"/>
      <point x="553" y="432"/>
      <point x="462" y="348"/>
      <point x="372" y="336" type="qcurve"/>
      <point x="372" y="332" type="line"/>
      <point x="463" y="320"/>
      <point x="560" y="232"/>
      <point x="560" y="161" type="qcurve"/>
      <point x="560" y="85"/>
      <point x="450" y="0"/>
      <point x="347" y="0" type="qcurve"/>
    </contour>
    <contour>
      <point x="292" y="606" type="line"/>
      <point x="162" y="606" type="line"/>
      <point x="162" y="352" type="line"/>
      <point x="292" y="358" type="line"/>
    </contour>
    <contour>
      <point x="491" y="496" type="qcurve"/>
      <point x="491" y="550"/>
      <point x="424" y="606"/>
      <point x="358" y="606" type="qcurve"/>
      <point x="337" y="606" type="line"/>
      <point x="337" y="361" type="line"/>
      <point x="409" y="371"/>
      <point x="491" y="444"/>
    </contour>
    <contour>
      <point x="292" y="49" type="line"/>
      <point x="292" y="304" type="line"/>
      <point x="162" y="308" type="line"/>
      <point x="162" y="49" type="line"/>
    </contour>
    <contour>
      <point x="499" y="165" type="qcurve"/>
      <point x="499" y="220"/>
      <point x="413" y="293"/>
      <point x="337" y="301" type="qcurve"/>
      <point x="337" y="49" type="line"/>
      <point x="349" y="49" type="line"/>
      <point x="420" y="49"/>
      <point x="499" y="111"/>
    </contour>
  </outline>
</glyph>
<glyph name="Hcedilla" format="2">
  <advance width="614"/>
  <unicode hex="1E28"/>
  <outline>
    <contour>
      <point x="100" y="0" type="line"/>
      <point x="100" y="655" type="line"/>
      <point x="161" y="655" type="line"/>
      <point x="161" y="356" type="line"/>
      <point x="453" y="356" type="line"/>
      <point x="453" y="655" type="line"/>
      <point x="514" y="655" type="line"/>
      <point x="514" y="0" type="line"/>
      <point x="453" y="0" type="line"/>
      <point x="453" y="305" type="line"/>
      <point x="161" y="305" type="line"/>
      <point x="161" y="0" type="line"/>
      <point x="154" y="0" type="line"/>
      <point x="134" y="-61" type="line"/>
      <point x="217" y="-68"/>
      <point x="288" y="-107"/>
      <point x="288" y="-150" type="qcurve"/>
      <point x="288" y="-188"/>
      <point x="239" y="-229"/>
      <point x="186" y="-243" type="qcurve"/>
      <point x="157" y="-250"/>
      <point x="82" y="-261"/>
      <point x="35" y="-265" type="qcurve"/>
      <point x="20" y="-216" type="line"/>
      <point x="131" y="-207"/>
      <point x="228" y="-180"/>
      <point x="228" y="-152" type="qcurve"/>
      <point x="228" y="-126"/>
      <point x="161" y="-105"/>
      <point x="83" y="-103" type="qcurve"/>
      <point x="77" y="-93" type="line"/>
      <point x="110" y="0" type="line"/>
    </contour>
  </outline>
</glyph>
<glyph name="hcedilla" format="2">
  <advance width="614"/>
  <unicode hex="1E29"/>
  <outline>
    <contour>
      <point x="103" y="710" type="line"/>
      <point x="162" y="710" type="line"/>
      <point x="162" y="346" type="line"/>
      <point x="231" y="414"/>
      <point x="321" y="465"/>
      <point x="371" y="465" type="qcurve"/>
      <point x="438" y="465"/>
      <point x="513" y="390"/>
      <point x="513" y="323" type="qcurve"/>
      <point x="513" y="0" type="line"/>
      <point x="454" y="0" type="line"/>
      <point x="454" y="313" type="line"/>
      <point x="454" y="364"/>
      <point x="409" y="413"/>
      <point x="361" y="413" type="qcurve"/>
      <point x="321" y="413"/>
      <point x="237" y="361"/>
      <point x="162" y="289" type="qcurve"/>
      <point x="162" y="0" type="line"/>
      <point x="154" y="0" type="line"/>
      <point x="134" y="-61" type="line"/>
      <point x="217" y="-68"/>
      <point x="288" y="-107"/>
      <point x="288" y="-150" type="qcurve"/>
      <point x="288" y="-188"/>
      <point x="239" y="-229"/>
      <point x="186" y="-243" type="qcurve"/>
      <point x="157" y="-250"/>
      <point x="82" y="-261"/>
      <point x="35" y="-265" type="qcurve"/>
      <point x="20" y="-216" type="line"/>
      <point x="131" y="-207"/>
      <point x="228" y="-180"/>
      <point x="228" y="-152" type="qcurve"/>
      <point x="228" y="-126"/>
      <point x="161" y="-105"/>
      <point x="83" y="-103" type="qcurve"/>
      <point x="77" y="-93" type="line"/>
      <point x="110" y="0" type="line"/>
      <point x="103" y="0" type="line"/>
    </contour>
  </outline>
</glyph>
<glyph name="uni1E9E" format="2">
  <advance width="614"/>
  <unicode hex="1E9E"/>
  <outline>
    <contour>
      <point x="498" y="140" type="qcurve"/>
      <point x="498" y="191"/>
      <point x="427" y="270"/>
      <point x="326" y="336" type="qcurve"/>
      <point x="326" y="356" type="line"/>
      <point x="464" y="560" type="line"/>
      <point x="415" y="591"/>
      <point x="341" y="619"/>
      <point x="308" y="619" type="qcurve"/>
      <point x="233" y="619"/>
      <point x="158" y="526"/>
      <point x="158" y="433" type="qcurve"/>
      <point x="158" y="0" type="line"/>
      <point x="97" y="0" type="line"/>
      <point x="97" y="434" type="line"/>
      <point x="97" y="545"/>
      <point x="208" y="670"/>
      <point x="306" y="670" type="qcurve"/>
      <point x="356" y="670"/>
      <point x="456" y="631"/>
      <point x="529" y="583" type="qcurve"/>
      <point x="529" y="563" type="line"/>
      <point x="388" y="358" type="line"/>
      <point x="486" y="292"/>
      <point x="561" y="201"/>
      <point x="561" y="137" type="qcurve"/>
      <point x="561" y="72"/>
      <point x="476" y="-6"/>
      <point x="403" y="-6" type="qcurve"/>
      <point x="376" y="-6"/>
      <point x="336" y="-3"/>
      <point x="318" y="0" type="qcurve"/>
      <point x="324" y="52" type="line"/>
      <point x="346" y="48"/>
      <point x="380" y="45"/>
      <point x="399" y="45" type="qcurve"/>
      <point x="445" y="45"/>
      <point x="498" y="96"/>
    </contour>
  </outline>
</glyph>
<glyph name="endash" format="2">
  <advance width="614"/>
  <unicode hex="2013"/>
  <outline>
    <contour>
      <point x="80" y="254" type="line"/>
      <point x="80" y="309" type="line"/>
      <point x="534" y="309" type="line"/>
      <point x="534" y="254" type="line"/>
    </contour>
  </outline>
</glyph>
<glyph name="quoteleft" format="2">
  <advance width="614"/>
  <unicode hex="2018"/>
  <outline>
    <contour>
      <point x="359" y="710" type="qcurve"/>
      <point x="422" y="710" type="line"/>
      <point x="422" y="708" type="line"/>
      <point x="364" y="634"/>
      <point x="320" y="524"/>
      <point x="320" y="456" type="qcurve"/>
      <point x="224" y="456" type="line"/>
      <point x="224" y="538"/>
      <point x="279" y="644"/>
    </contour>
  </outline>
</glyph>
<glyph name="quoteright" format="2">
  <advance width="614"/>
  <unicode hex="2019"/>
  <outline>
    <contour>
      <point x="255" y="456" type="qcurve"/>
      <point x="192" y="456" type="line"/>
      <point x="192" y="458" type="line"/>
      <point x="250" y="532"/>
      <point x="294" y="642"/>
      <point x="294" y="710" type="qcurve"/>
      <point x="390" y="710" type="line"/>
      <point x="390" y="628"/>
      <point x="335" y="522"/>
    </contour>
  </outline>
</glyph>
<glyph name="quotedblleft" format="2">
  <advance width="614"/>
  <unicode hex="201C"/>
  <outline>
    <contour>
      <point x="235" y="710" type="qcurve"/>
      <point x="298" y="710" type="line"/>
      <point x="298" y="708" type="line"/>
      <point x="238" y="618"/>
      <point x="206" y="534"/>
      <point x="198" y="446" type="qcurve"/>
      <point x="98" y="446" type="line"/>
      <point x="108" y="545"/>
      <point x="153" y="633"/>
    </contour>
    <contour>
      <point x="480" y="710" type="qcurve"/>
      <point x="543" y="710" type="line"/>
      <point x="543" y="708" type="line"/>
      <point x="483" y="618"/>
      <point x="451" y="534"/>
      <point x="443" y="446" type="qcurve"/>
      <point x="343" y="446" type="line"/>
      <point x="353" y="545"/>
      <point x="398" y="633"/>
    </contour>
  </outline>
</glyph>
<glyph name="daggerdbl" format="2">
  <advance width="614"/>
  <unicode hex="2021"/>
  <outline>
    <contour>
      <point x="524" y="277" type="qcurve"/>
      <point x="524" y="195" type="line"/>
      <point x="505" y="195"/>
      <point x="459" y="200"/>
      <point x="413" y="208" type="qcurve"/>
      <point x="380" y="213"/>
      <point x="346" y="218"/>
      <point x="332" y="219" type="qcurve"/>
      <point x="332" y="201"/>
      <point x="336" y="159"/>
      <point x="341" y="117" type="qcurve"/>
      <point x="347" y="69"/>
      <point x="350" y="21"/>
      <point x="350" y="0" type="qcurve"/>
      <point x="264" y="0" type="line"/>
      <point x="264" y="21"/>
      <point x="268" y="71"/>
      <point x="274" y="120" type="qcurve"/>
      <point x="279" y="161"/>
      <point x="283" y="202"/>
      <point x="284" y="219" type="qcurve"/>
      <point x="269" y="218"/>
      <point x="234" y="214"/>
      <point x="200" y="207" type="qcurve"/>
      <point x="155" y="200"/>
      <point x="110" y="195"/>
      <point x="91" y="195" type="qcurve"/>
      <point x="91" y="277" type="line"/>
      <point x="110" y="277"/>
      <point x="154" y="273"/>
      <point x="198" y="266" type="qcurve"/>
      <point x="233" y="261"/>
      <point x="269" y="257"/>
      <point x="284" y="256" type="qcurve"/>
      <point x="284" y="459" type="line"/>
      <point x="268" y="458"/>
      <point x="229" y="453"/>
      <point x="190" y="447" type="qcurve"/>
      <point x="143" y="440"/>
      <point x="95" y="435"/>
      <point x="75" y="435" type="qcurve"/>
      <point x="75" y="517" type="line"/>
      <point x="96" y="517"/>
      <point x="143" y="513"/>
      <point x="191" y="506" type="qcurve"/>
      <point x="229" y="501"/>
      <point x="268" y="497"/>
      <point x="284" y="496" type="qcurve"/>
      <point x="283" y="513"/>
      <point x="279" y="551"/>
      <point x="273" y="590" type="qcurve"/>
      <point x="266" y="640"/>
      <point x="261" y="689"/>
      <point x="261" y="710" type="qcurve"/>
      <point x="353" y="710" type="line"/>
      <point x="353" y="690"/>
      <point x="349" y="641"/>
      <point x="342" y="593" type="qcurve"/>
      <point x="337" y="553"/>
      <point x="333" y="513"/>
      <point x="332" y="496" type="qcurve"/>
      <point x="348" y="497"/>
      <point x="385" y="501"/>
      <point x="423" y="506" type="qcurve"/>
      <point x="471" y="513"/>
      <point x="519" y="517"/>
      <point x="539" y="517" type="qcurve"/>
      <point x="539" y="435" type="line"/>
      <point x="520" y="435"/>
      <point x="475" y="440"/>
      <point x="428" y="447" type="qcurve"/>
      <point x="388" y="453"/>
      <point x="349" y="458"/>
      <point x="332" y="459" type="qcurve"/>
      <point x="332" y="256" type="line"/>
      <point x="347" y="257"/>
      <point x="381" y="261"/>
      <point x="415" y="266" type="qcurve"/>
      <point x="460" y="273"/>
      <point x="505" y="277"/>
    </contour>
  </outline>
</glyph>
<glyph name="naira" format="2">
  <advance width="614"/>
  <unicode hex="20A6"/>
  <outline>
    <contour>
      <point x="165" y="237" type="line"/>
      <point x="165" y="0" type="line"/>
      <point x="110" y="0" type="line"/>
      <point x="110" y="233" type="line"/>
      <point x="12" y="233" type="line"/>
      <point x="12" y="281" type="line"/>
      <point x="110" y="281" type="line"/>
      <point x="110" y="380" type="line"/>
      <point x="12" y="380" type="line"/>
      <point x="12" y="428" type="line"/>
      <point x="110" y="428" type="line"/>
      <point x="110" y="655" type="line"/>
      <point x="210" y="655" type="line"/>
      <point x="300" y="424" type="line"/>
      <point x="449" y="424" type="line"/>
      <point x="449" y="655" type="line"/>
      <point x="504" y="655" type="line"/>
      <point x="504" y="428" type="line"/>
      <point x="602" y="428" type="line"/>
      <point x="602" y="380" type="line"/>
      <point x="504" y="380" type="line"/>
      <point x="504" y="281" type="line"/>
      <point x="602" y="281" type="line"/>
      <point x="602" y="233" type="line"/>
      <point x="504" y="233" type="line"/>
      <point x="504" y="0" type="line"/>
      <point x="407" y="0" type="line"/>
      <point x="314" y="237" type="line"/>
    </contour>
    <contour>
      <point x="168" y="610" type="line"/>
      <point x="165" y="610" type="line"/>
      <point x="165" y="277" type="line"/>
      <point x="298" y="277" type="line"/>
    </contour>
    <contour>
      <point x="449" y="384" type="line"/>
      <point x="316" y="384" type="line"/>
      <point x="445" y="54" type="line"/>
      <point x="449" y="54" type="line"/>
    </contour>
  </outline>
</glyph>
<glyph name="dong" format="2">
  <advance width="614"/>
  <unicode hex="20AB"/>
  <outline>
    <contour>
      <point x="274" y="-8" type="qcurve"/>
      <point x="185" y="-8"/>
      <point x="66" y="114"/>
      <point x="66" y="207" type="qcurve"/>
      <point x="66" y="302"/>
      <point x="197" y="428"/>
      <point x="296" y="428" type="qcurve"/>
      <point x="338" y="428"/>
      <point x="417" y="393"/>
      <point x="455" y="357" type="qcurve"/>
      <point x="455" y="513" type="line"/>
      <point x="255" y="513" type="line"/>
      <point x="255" y="561" type="line"/>
      <point x="455" y="561" type="line"/>
      <point x="455" y="655" type="line"/>
      <point x="514" y="655" type="line"/>
      <point x="514" y="561" type="line"/>
      <point x="600" y="561" type="line"/>
      <point x="600" y="513" type="line"/>
      <point x="514" y="513" type="line"/>
      <point x="514" y="0" type="line"/>
      <point x="465" y="0" type="line"/>
      <point x="457" y="86" type="line"/>
      <point x="409" y="35"/>
      <point x="326" y="-8"/>
    </contour>
    <contour>
      <point x="301" y="378" type="qcurve"/>
      <point x="222" y="378"/>
      <point x="126" y="282"/>
      <point x="126" y="206" type="qcurve"/>
      <point x="126" y="135"/>
      <point x="217" y="42"/>
      <point x="282" y="42" type="qcurve"/>
      <point x="324" y="42"/>
      <point x="404" y="90"/>
      <point x="455" y="144" type="qcurve"/>
      <point x="455" y="299" type="line"/>
      <point x="416" y="338"/>
      <point x="339" y="378"/>
    </contour>
    <contour>
      <point x="504" y="-136" type="line"/>
      <point x="96" y="-136" type="line"/>
      <point x="96" y="-88" type="line"/>
      <point x="504" y="-88" type="line"/>
    </contour>
  </outline>
</glyph>
<glyph name="Euro" format="2">
  <advance width="614"/>
  <unicode hex="20AC"/>
  <outline>
    <contour>
      <point x="140" y="233" type="qcurve"/>
      <point x="52" y="233" type="line"/>
      <point x="52" y="281" type="line"/>
      <point x="139" y="281" type="line"/>
      <point x="139" y="374" type="line"/>
      <point x="52" y="374" type="line"/>
      <point x="52" y="422" type="line"/>
      <point x="140" y="422" type="line"/>
      <point x="149" y="539"/>
      <point x="283" y="670"/>
      <point x="391" y="670" type="qcurve"/>
      <point x="435" y="670"/>
      <point x="516" y="646"/>
      <point x="569" y="617" type="qcurve"/>
      <point x="545" y="569" type="line"/>
      <point x="494" y="597"/>
      <point x="427" y="619"/>
      <point x="389" y="619" type="qcurve"/>
      <point x="302" y="619"/>
      <point x="209" y="520"/>
      <point x="203" y="421" type="qcurve"/>
      <point x="441" y="421" type="line"/>
      <point x="441" y="375" type="line"/>
      <point x="202" y="375" type="line"/>
      <point x="202" y="280" type="line"/>
      <point x="441" y="280" type="line"/>
      <point x="441" y="234" type="line"/>
      <point x="203" y="234" type="line"/>
      <point x="209" y="136"/>
      <point x="300" y="36"/>
      <point x="384" y="36" type="qcurve"/>
      <point x="429" y="36"/>
      <point x="503" y="60"/>
      <point x="557" y="90" type="qcurve"/>
      <point x="581" y="42" type="line"/>
      <point x="526" y="11"/>
      <point x="436" y="-15"/>
      <point x="383" y="-15" type="qcurve"/>
      <point x="269" y="-15"/>
      <point x="147" y="110"/>
    </contour>
  </outline>
</glyph>
<glyph name="uni20B9" format="2">
  <advance width="614"/>
  <unicode hex="20B9"/>
  <outline>
    <contour>
      <point x="380" y="410" type="qcurve"/>
      <point x="70" y="410" type="line"/>
      <point x="70" y="458" type="line"/>
      <point x="380" y="458" type="line"/>
      <point x="380" y="607" type="line"/>
      <point x="70" y="607" type="line"/>
      <point x="70" y="655" type="line"/>
      <point x="550" y="655" type="line"/>
      <point x="550" y="607" type="line"/>
      <point x="443" y="607" type="line"/>
      <point x="443" y="458" type="line"/>
      <point x="550" y="458" type="line"/>
      <point x="550" y="410" type="line"/>
      <point x="443" y="410" type="line"/>
      <point x="438" y="312"/>
      <point x="331" y="219"/>
      <point x="224" y="219" type="qcurve"/>
      <point x="179" y="219" type="line"/>
      <point x="179" y="217" type="line"/>
      <point x="525" y="2" type="line"/>
      <point x="525" y="0" type="line"/>
      <point x="423" y="0" type="line"/>
      <point x="70" y="223" type="line"/>
      <point x="70" y="268" type="line"/>
      <point x="227" y="268" type="line"/>
      <point x="302" y="268"/>
      <point x="376" y="335"/>
    </contour>
  </outline>
</glyph>
<glyph name="uni20BD" format="2">
  <advance width="614"/>
  <unicode hex="20BD"/>
  <outline>
    <contour>
      <point x="151" y="133" type="line"/>
      <point x="43" y="133" type="line"/>
      <point x="43" y="181" type="line"/>
      <point x="151" y="181" type="line"/>
      <point x="151" y="285" type="line"/>
      <point x="43" y="285" type="line"/>
      <point x="43" y="333" type="line"/>
      <point x="151" y="333" type="line"/>
      <point x="151" y="655" type="line"/>
      <point x="365" y="655" type="line"/>
      <point x="475" y="655"/>
      <point x="591" y="559"/>
      <point x="591" y="469" type="qcurve"/>
      <point x="591" y="379"/>
      <point x="467" y="285"/>
      <point x="347" y="285" type="qcurve"/>
      <point x="212" y="285" type="line"/>
      <point x="212" y="181" type="line"/>
      <point x="455" y="181" type="line"/>
      <point x="455" y="133" type="line"/>
      <point x="212" y="133" type="line"/>
      <point x="212" y="0" type="line"/>
      <point x="151" y="0" type="line"/>
    </contour>
    <contour>
      <point x="530" y="469" type="qcurve"/>
      <point x="530" y="536"/>
      <point x="446" y="604"/>
      <point x="363" y="604" type="qcurve"/>
      <point x="212" y="604" type="line"/>
      <point x="212" y="333" type="line"/>
      <point x="353" y="333" type="line"/>
      <point x="439" y="333"/>
      <point x="530" y="404"/>
    </contour>
  </outline>
</glyph>
<glyph name="notequal" format="2">
  <advance width="614"/>
  <unicode hex="2260"/>
  <outline>
    <contour>
      <point x="214" y="209" type="line"/>
      <point x="98" y="209" type="line"/>
      <point x="98" y="261" type="line"/>
      <point x="246" y="261" type="line"/>
      <point x="294" y="338" type="line"/>
      <point x="326" y="392" type="line"/>
      <point x="98" y="392" type="line"/>
      <point x="98" y="443" type="line"/>
      <point x="355" y="443" type="line"/>
      <point x="445" y="596" type="line"/>
      <point x="502" y="596" type="line"/>
      <point x="407" y="443" type="line"/>
      <point x="516" y="443" type="line"/>
      <point x="516" y="392" type="line"/>
      <point x="376" y="392" type="line"/>
      <point x="342" y="337" type="line"/>
      <point x="297" y="261" type="line"/>
      <point x="516" y="261" type="line"/>
      <point x="516" y="209" type="line"/>
      <point x="267" y="209" type="line"/>
      <point x="187" y="73" type="line"/>
      <point x="130" y="73" type="line"/>
    </contour>
  </outline>
</glyph>
<glyph name="brevegrave.cap" format="2">
  <outline>
    <contour>
      <point x="-147" y="1064" type="line"/>
      <point x="73" y="920" type="line"/>
      <point x="50" y="885" type="line"/>
      <point x="-180" y="1016" type="line"/>
    </contour>
    <contour>
      <point x="0" y="781" type="qcurve"/>
      <point x="51" y="781"/>
      <point x="117" y="835"/>
      <point x="137" y="894" type="qcurve"/>
      <point x="179" y="882" type="line"/>
      <point x="157" y="803"/>
      <point x="73" y="731"/>
      <point x="0" y="731" type="qcurve"/>
      <point x="-73" y="731"/>
      <point x="-157" y="803"/>
      <point x="-179" y="882" type="qcurve"/>
      <point x="-137" y="894" type="line"/>
      <point x="-117" y="835"/>
      <point x="-51" y="781"/>
    </contour>
  </outline>
</glyph>
<glyph name="brevehook.cap" format="2">
  <outline>
    <contour>
      <point x="118" y="974" type="qcurve"/>
      <point x="118" y="943"/>
      <point x="32" y="900"/>
      <point x="-51" y="892" type="qcurve"/>
      <point x="-65" y="924" type="line"/>
      <point x="-65" y="926" type="line"/>
      <point x="6" y="937"/>
      <point x="61" y="956"/>
      <point x="61" y="971" type="qcurve"/>
      <point x="61" y="989"/>
      <point x="-9" y="1011"/>
      <point x="-108" y="1027" type="qcurve"/>
      <point x="-108" y="1030" type="line"/>
      <point x="-75" y="1066" type="line"/>
      <point x="34" y="1048"/>
      <point x="118" y="1010"/>
    </contour>
    <contour>
      <point x="0" y="781" type="qcurve"/>
      <point x="51" y="781"/>
      <point x="117" y="835"/>
      <point x="137" y="894" type="qcurve"/>
      <point x="179" y="882" type="line"/>
      <point x="157" y="803"/>
      <point x="73" y="731"/>
      <point x="0" y="731" type="qcurve"/>
      <point x="-73" y="731"/>
      <point x="-157" y="803"/>
      <point x="-179" y="882" type="qcurve"/>
      <point x="-137" y="894" type="line"/>
      <point x="-117" y="835"/>
      <point x="-51" y="781"/>
    </contour>
  </outline>
</glyph>
<glyph name="brevehook" format="2">
  <outline>
    <contour>
      <point x="131" y="827" type="qcurve"/>
      <point x="131" y="791"/>
      <point x="42" y="740"/>
      <point x="-45" y="728" type="qcurve"/>
      <point x="-59" y="760" type="line"/>
      <point x="-59" y="762" type="line"/>
      <point x="16" y="778"/>
      <point x="74" y="804"/>
      <point x="74" y="824" type="qcurve"/>
      <point x="74" y="843"/>
      <point x="8" y="867"/>
      <point x="-75" y="880" type="qcurve"/>
      <point x="-75" y="883" type="line"/>
      <point x="-42" y="919" type="line"/>
      <point x="54" y="904"/>
      <point x="131" y="865"/>
    </contour>
    <contour>
      <point x="0" y="586" type="qcurve"/>
      <point x="48" y="586"/>
      <point x="112" y="648"/>
      <point x="137" y="720" type="qcurve"/>
      <point x="179" y="708" type="line"/>
      <point x="155" y="616"/>
      <point x="71" y="536"/>
      <point x="0" y="536" type="qcurve"/>
      <point x="-71" y="536"/>
      <point x="-155" y="616"/>
      <point x="-179" y="708" type="qcurve"/>
      <point x="-137" y="720" type="line"/>
      <point x="-112" y="648"/>
      <point x="-48" y="586"/>
    </contour>
  </outline>
</glyph>
<glyph name="caroncmb.cap" format="2">
  <outline>
    <contour>
      <point x="153" y="920" type="line"/>
      <point x="183" y="890" type="line"/>
      <point x="18" y="731" type="line"/>
      <point x="-18" y="731" type="line"/>
      <point x="-183" y="890" type="line"/>
      <point x="-153" y="920" type="line"/>
      <point x="0" y="789" type="line"/>
    </contour>
  </outline>
</glyph>
<glyph name="circumflexacute.cap" format="2">
  <outline>
    <contour>
      <point x="128" y="893" type="line"/>
      <point x="105" y="928" type="line"/>
      <point x="249" y="1033" type="line"/>
      <point x="282" y="985" type="line"/>
    </contour>
    <contour>
      <point x="-153" y="732" type="line"/>
      <point x="-183" y="762" type="line"/>
      <point x="-18" y="901" type="line"/>
      <point x="18" y="901" type="line"/>
      <point x="183" y="762" type="line"/>
      <point x="153" y="732" type="line"/>
      <point x="0" y="844" type="line"/>
    </contour>
  </outline>
</glyph>
<glyph name="circumflexacute" format="2">
  <outline>
    <contour>
      <point x="128" y="702" type="line"/>
      <point x="100" y="732" type="line"/>
      <point x="235" y="858" type="line"/>
      <point x="275" y="816" type="line"/>
    </contour>
    <contour>
      <point x="-153" y="536" type="line"/>
      <point x="-183" y="566" type="line"/>
      <point x="-18" y="731" type="line"/>
      <point x="18" y="731" type="line"/>
      <point x="183" y="566" type="line"/>
      <point x="153" y="536" type="line"/>
      <point x="0" y="672" type="line"/>
    </contour>
  </outline>
</glyph>
<glyph name="circumflexgrave.cap" format="2">
  <outline>
    <contour>
      <point x="70" y="1041" type="line"/>
      <point x="230" y="928" type="line"/>
      <point x="207" y="893" type="line"/>
      <point x="37" y="993" type="line"/>
    </contour>
    <contour>
      <point x="-153" y="732" type="line"/>
      <point x="-183" y="762" type="line"/>
      <point x="-18" y="901" type="line"/>
      <point x="18" y="901" type="line"/>
      <point x="183" y="762" type="line"/>
      <point x="153" y="732" type="line"/>
      <point x="0" y="844" type="line"/>
    </contour>
  </outline>
</glyph>
<glyph name="circumflexhook.cap" format="2">
  <outline>
    <contour>
      <point x="275" y="980" type="qcurve"/>
      <point x="275" y="949"/>
      <point x="189" y="906"/>
      <point x="106" y="898" type="qcurve"/>
      <point x="92" y="930" type="line"/>
      <point x="92" y="932" type="line"/>
      <point x="163" y="943"/>
      <point x="218" y="962"/>
      <point x="218" y="977" type="qcurve"/>
      <point x="218" y="995"/>
      <point x="148" y="1017"/>
      <point x="49" y="1033" type="qcurve"/>
      <point x="49" y="1036" type="line"/>
      <point x="82" y="1072" type="line"/>
      <point x="191" y="1054"/>
      <point x="275" y="1016"/>
    </contour>
    <contour>
      <point x="-153" y="732" type="line"/>
      <point x="-183" y="762" type="line"/>
      <point x="-18" y="901" type="line"/>
      <point x="18" y="901" type="line"/>
      <point x="183" y="762" type="line"/>
      <point x="153" y="732" type="line"/>
      <point x="0" y="844" type="line"/>
    </contour>
  </outline>
</glyph>
<glyph name="circumflexhook" format="2">
  <outline>
    <contour>
      <point x="289" y="804" type="qcurve"/>
      <point x="289" y="768"/>
      <point x="200" y="717"/>
      <point x="113" y="705" type="qcurve"/>
      <point x="99" y="737" type="line"/>
      <point x="99" y="739" type="line"/>
      <point x="174" y="755"/>
      <point x="232" y="781"/>
      <point x="232" y="801" type="qcurve"/>
      <point x="232" y="820"/>
      <point x="166" y="844"/>
      <point x="83" y="857" type="qcurve"/>
      <point x="83" y="860" type="line"/>
      <point x="116" y="896" type="line"/>
      <point x="212" y="881"/>
      <point x="289" y="842"/>
    </contour>
    <contour>
      <point x="-153" y="536" type="line"/>
      <point x="-183" y="566" type="line"/>
      <point x="-18" y="731" type="line"/>
      <point x="18" y="731" type="line"/>
      <point x="183" y="566" type="line"/>
      <point x="153" y="536" type="line"/>
      <point x="0" y="672" type="line"/>
    </contour>
  </outline>
</glyph>
<glyph name="dieresisacute" format="2">
  <outline>
    <contour>
      <point x="-54" y="693" type="line"/>
      <point x="-78" y="727" type="line"/>
      <point x="140" y="873" type="line"/>
      <point x="171" y="823" type="line"/>
    </contour>
    <contour>
      <point x="-69" y="602" type="qcurve"/>
      <point x="-69" y="580"/>
      <point x="-95" y="556"/>
      <point x="-119" y="556" type="qcurve"/>
      <point x="-142" y="556"/>
      <point x="-166" y="580"/>
      <point x="-166" y="602" type="qcurve"/>
      <point x="-166" y="623"/>
      <point x="-140" y="649"/>
      <point x="-118" y="649" type="qcurve"/>
      <point x="-94" y="649"/>
      <point x="-69" y="625"/>
    </contour>
    <contour>
      <point x="167" y="602" type="qcurve"/>
      <point x="167" y="580"/>
      <point x="141" y="556"/>
      <point x="117" y="556" type="qcurve"/>
      <point x="94" y="556"/>
      <point x="69" y="580"/>
      <point x="69" y="602" type="qcurve"/>
      <point x="69" y="623"/>
      <point x="96" y="649"/>
      <point x="118" y="649" type="qcurve"/>
      <point x="142" y="649"/>
      <point x="167" y="625"/>
    </contour>
  </outline>
</glyph>
<glyph name="dieresiscaron" format="2">
  <outline>
    <contour>
      <point x="153" y="894" type="line"/>
      <point x="183" y="864" type="line"/>
      <point x="18" y="699" type="line"/>
      <point x="-18" y="699" type="line"/>
      <point x="-183" y="864" type="line"/>
      <point x="-153" y="894" type="line"/>
      <point x="0" y="758" type="line"/>
    </contour>
    <contour>
      <point x="-69" y="602" type="qcurve"/>
      <point x="-69" y="580"/>
      <point x="-95" y="556"/>
      <point x="-119" y="556" type="qcurve"/>
      <point x="-142" y="556"/>
      <point x="-166" y="580"/>
      <point x="-166" y="602" type="qcurve"/>
      <point x="-166" y="623"/>
      <point x="-140" y="649"/>
      <point x="-118" y="649" type="qcurve"/>
      <point x="-94" y="649"/>
      <point x="-69" y="625"/>
    </contour>
    <contour>
      <point x="167" y="602" type="qcurve"/>
      <point x="167" y="580"/>
      <point x="141" y="556"/>
      <point x="117" y="556" type="qcurve"/>
      <point x="94" y="556"/>
      <point x="69" y="580"/>
      <point x="69" y="602" type="qcurve"/>
      <point x="69" y="623"/>
      <point x="96" y="649"/>
      <point x="118" y="649" type="qcurve"/>
      <point x="142" y="649"/>
      <point x="167" y="625"/>
    </contour>
  </outline>
</glyph>
<glyph name="dieresisgrave.cap" format="2">
  <outline>
    <contour>
      <point x="-147" y="1068" type="line"/>
      <point x="73" y="924" type="line"/>
      <point x="50" y="889" type="line"/>
      <point x="-180" y="1020" type="line"/>
    </contour>
    <contour>
      <point x="-81" y="801" type="qcurve"/>
      <point x="-81" y="777"/>
      <point x="-109" y="751"/>
      <point x="-135" y="751" type="qcurve"/>
      <point x="-160" y="751"/>
      <point x="-187" y="777"/>
      <point x="-187" y="801" type="qcurve"/>
      <point x="-187" y="825"/>
      <point x="-158" y="852"/>
      <point x="-134" y="852" type="qcurve"/>
      <point x="-108" y="852"/>
      <point x="-81" y="826"/>
    </contour>
    <contour>
      <point x="186" y="801" type="qcurve"/>
      <point x="186" y="777"/>
      <point x="158" y="751"/>
      <point x="132" y="751" type="qcurve"/>
      <point x="107" y="751"/>
      <point x="80" y="777"/>
      <point x="80" y="801" type="qcurve"/>
      <point x="80" y="825"/>
      <point x="109" y="852"/>
      <point x="133" y="852" type="qcurve"/>
      <point x="159" y="852"/>
      <point x="186" y="826"/>
    </contour>
  </outline>
</glyph>
<glyph name="dotaccentcmb.cap" format="2">
  <outline>
    <contour>
      <point x="57" y="805" type="qcurve"/>
      <point x="57" y="779"/>
      <point x="27" y="751"/>
      <point x="-1" y="751" type="qcurve"/>
      <point x="-28" y="751"/>
      <point x="-57" y="779"/>
      <point x="-57" y="805" type="qcurve"/>
      <point x="-57" y="830"/>
      <point x="-26" y="860"/>
      <point x="0" y="860" type="qcurve"/>
      <point x="28" y="860"/>
      <point x="57" y="832"/>
    </contour>
  </outline>
</glyph>
<glyph name="four.den" format="2">
  <advance width="614"/>
  <outline>
    <contour>
      <point x="349" y="98" type="line"/>
      <point x="155" y="98" type="line"/>
      <point x="155" y="134" type="line"/>
      <point x="332" y="380" type="line"/>
      <point x="398" y="380" type="line"/>
      <point x="398" y="139" type="line"/>
      <point x="473" y="139" type="line"/>
      <point x="473" y="98" type="line"/>
      <point x="398" y="98" type="line"/>
      <point x="398" y="0" type="line"/>
      <point x="349" y="0" type="line"/>
    </contour>
    <contour>
      <point x="353" y="136" type="line"/>
      <point x="353" y="346" type="line"/>
      <point x="207" y="140" type="line"/>
      <point x="207" y="136" type="line"/>
    </contour>
  </outline>
</glyph>
<glyph name="middotcat.cap" format="2">
  <advance width="614"/>
  <outline>
    <contour>
      <point x="302" y="357" type="qcurve"/>
      <point x="302" y="324"/>
      <point x="264" y="288"/>
      <point x="231" y="288" type="qcurve"/>
      <point x="197" y="288"/>
      <point x="160" y="323"/>
      <point x="160" y="356" type="qcurve"/>
      <point x="160" y="389"/>
      <point x="198" y="425"/>
      <point x="231" y="425" type="qcurve"/>
      <point x="265" y="425"/>
      <point x="302" y="390"/>
    </contour>
  </outline>
</glyph>
<glyph name="middotcat" format="2">
  <advance width="614"/>
  <outline>
    <contour>
      <point x="352" y="357" type="qcurve"/>
      <point x="352" y="324"/>
      <point x="314" y="288"/>
      <point x="281" y="288" type="qcurve"/>
      <point x="247" y="288"/>
      <point x="210" y="323"/>
      <point x="210" y="356" type="qcurve"/>
      <point x="210" y="389"/>
      <point x="248" y="425"/>
      <point x="281" y="425" type="qcurve"/>
      <point x="315" y="425"/>
      <point x="352" y="390"/>
    </contour>
  </outline>
</glyph>
<glyph name="nine.den" format="2">
  <advance width="614"/>
  <outline>
    <contour>
      <point x="452" y="252" type="qcurve"/>
      <point x="452" y="201"/>
      <point x="404" y="112"/>
      <point x="344" y="54" type="qcurve"/>
      <point x="288" y="0" type="line"/>
      <point x="219" y="0" type="line"/>
      <point x="218" y="1" type="line"/>
      <point x="299" y="74" type="line"/>
      <point x="325" y="98"/>
      <point x="356" y="131"/>
      <point x="366" y="146" type="qcurve"/>
      <point x="349" y="140"/>
      <point x="315" y="134"/>
      <point x="297" y="134" type="qcurve"/>
      <point x="236" y="134"/>
      <point x="163" y="202"/>
      <point x="163" y="259" type="qcurve"/>
      <point x="163" y="319"/>
      <point x="246" y="395"/>
      <point x="312" y="395" type="qcurve"/>
      <point x="373" y="395"/>
      <point x="452" y="316"/>
    </contour>
    <contour>
      <point x="389" y="187" type="qcurve"/>
      <point x="395" y="202"/>
      <point x="401" y="233"/>
      <point x="401" y="249" type="qcurve"/>
      <point x="401" y="296"/>
      <point x="349" y="353"/>
      <point x="307" y="353" type="qcurve"/>
      <point x="266" y="353"/>
      <point x="215" y="300"/>
      <point x="215" y="258" type="qcurve"/>
      <point x="215" y="219"/>
      <point x="266" y="173"/>
      <point x="309" y="173" type="qcurve"/>
      <point x="330" y="173"/>
      <point x="370" y="180"/>
    </contour>
  </outline>
</glyph>
<glyph name="seven.den" format="2">
  <advance width="614"/>
  <outline>
    <contour>
      <point x="443" y="338" type="line"/>
      <point x="272" y="0" type="line"/>
      <point x="213" y="0" type="line"/>
      <point x="213" y="2" type="line"/>
      <point x="390" y="332" type="line"/>
      <point x="390" y="336" type="line"/>
      <point x="149" y="336" type="line"/>
      <point x="149" y="380" type="line"/>
      <point x="443" y="380" type="line"/>
    </contour>
  </outline>
</glyph>
<glyph name="six.den" format="2">
  <advance width="614"/>
  <outline>
    <contour>
      <point x="318" y="243" type="qcurve"/>
      <point x="379" y="243"/>
      <point x="452" y="176"/>
      <point x="452" y="119" type="qcurve"/>
      <point x="452" y="60"/>
      <point x="370" y="-15"/>
      <point x="307" y="-15" type="qcurve"/>
      <point x="245" y="-15"/>
      <point x="164" y="63"/>
      <point x="164" y="126" type="qcurve"/>
      <point x="164" y="176"/>
      <point x="205" y="256"/>
      <point x="271" y="323" type="qcurve"/>
      <point x="327" y="380" type="line"/>
      <point x="397" y="380" type="line"/>
      <point x="397" y="379" type="line"/>
      <point x="317" y="303" type="line"/>
      <point x="297" y="284"/>
      <point x="264" y="249"/>
      <point x="251" y="232" type="qcurve"/>
      <point x="269" y="238"/>
      <point x="301" y="243"/>
    </contour>
    <contour>
      <point x="227" y="190" type="qcurve"/>
      <point x="221" y="176"/>
      <point x="215" y="145"/>
      <point x="215" y="129" type="qcurve"/>
      <point x="215" y="83"/>
      <point x="267" y="27"/>
      <point x="308" y="27" type="qcurve"/>
      <point x="350" y="27"/>
      <point x="401" y="79"/>
      <point x="401" y="120" type="qcurve"/>
      <point x="401" y="159"/>
      <point x="350" y="204"/>
      <point x="306" y="204" type="qcurve"/>
      <point x="285" y="204"/>
      <point x="246" y="197"/>
    </contour>
  </outline>
</glyph>
<glyph name="three.den" format="2">
  <advance width="614"/>
  <outline>
    <contour>
      <point x="362" y="338" type="line"/>
      <point x="164" y="338" type="line"/>
      <point x="164" y="380" type="line"/>
      <point x="433" y="380" type="line"/>
      <point x="433" y="348" type="line"/>
      <point x="302" y="226" type="line"/>
      <point x="302" y="224" type="line"/>
      <point x="378" y="224"/>
      <point x="450" y="176"/>
      <point x="450" y="122" type="qcurve"/>
      <point x="450" y="66"/>
      <point x="348" y="4"/>
      <point x="245" y="-4" type="qcurve"/>
      <point x="177" y="-9" type="line"/>
      <point x="172" y="36" type="line"/>
      <point x="241" y="42" type="line"/>
      <point x="323" y="48"/>
      <point x="399" y="86"/>
      <point x="399" y="122" type="qcurve"/>
      <point x="399" y="155"/>
      <point x="348" y="185"/>
      <point x="295" y="185" type="qcurve"/>
      <point x="281" y="185"/>
      <point x="251" y="182"/>
      <point x="236" y="180" type="qcurve"/>
      <point x="227" y="204" type="line"/>
      <point x="362" y="336" type="line"/>
    </contour>
  </outline>
</glyph>
<glyph name="tildecmb.cap" format="2">
  <outline>
    <contour>
      <point x="153" y="897" type="qcurve"/>
      <point x="195" y="883" type="line"/>
      <point x="161" y="796"/>
      <point x="114" y="731"/>
      <point x="82" y="731" type="qcurve"/>
      <point x="64" y="731"/>
      <point x="23" y="760"/>
      <point x="-20" y="801" type="qcurve"/>
      <point x="-51" y="831"/>
      <point x="-76" y="849"/>
      <point x="-85" y="849" type="qcurve"/>
      <point x="-99" y="849"/>
      <point x="-125" y="805"/>
      <point x="-157" y="731" type="qcurve"/>
      <point x="-199" y="745" type="line"/>
      <point x="-165" y="832"/>
      <point x="-118" y="897"/>
      <point x="-86" y="897" type="qcurve"/>
      <point x="-68" y="897"/>
      <point x="-27" y="868"/>
      <point x="16" y="827" type="qcurve"/>
      <point x="47" y="797"/>
      <point x="72" y="779"/>
      <point x="81" y="779" type="qcurve"/>
      <point x="95" y="779"/>
      <point x="121" y="823"/>
    </contour>
  </outline>
</glyph>
